STARTFONT 2.1
FONT -Monotype-Arial Narrow-Bold-R-Normal--50-360-100-100-P-224-iso8859-9
SIZE 36 100 100
FONTBOUNDINGBOX 51 58 -8 -11

STARTPROPERTIES 24
FOUNDRY "Monotype"
FAMILY_NAME "Arial Narrow"
WEIGHT_NAME "Bold"
SLANT "R"
SETWIDTH_NAME "Normal"
ADD_STYLE_NAME ""
PIXEL_SIZE 50
POINT_SIZE 360
RESOLUTION_X 100
RESOLUTION_Y 100
SPACING "P"
AVERAGE_WIDTH 224
CHARSET_REGISTRY "iso8859"
CHARSET_ENCODING "9"
FACE_NAME "Arial Narrow Bold ISO Latin5"
_DEC_DEVICE_FONTNAMES "PS=arialnarrow-b-lat5"
COPYRIGHT "Copyright (c) 1993 Monotype Typography Ltd."
CAP_HEIGHT 43
X_HEIGHT 31
WEIGHT 10
QUAD_WIDTH 26
DEFAULT_CHAR 160
FONT_DESCENT 13
FONT_ASCENT 48
ENDPROPERTIES

CHARS 191

STARTCHAR space
ENCODING 32
SWIDTH 228 0
DWIDTH 11 0
BBX 0 0 0 0
BITMAP
ENDCHAR

STARTCHAR exclam
ENCODING 33
SWIDTH 273 0
DWIDTH 14 0
BBX 10 36 2 0
BITMAP
3F00
3F00
3F00
3F00
3F00
3F00
3F00
3F00
3F00
3F00
3F00
3F00
3F00
3F00
3F00
3F00
1E00
1E00
1E00
1E00
1E00
1E00
1E00
1E00
1E00
1E00
1E00
0000
0000
3F00
3F00
3F00
3F00
3F00
3F00
3F00
ENDCHAR

STARTCHAR quotedbl
ENCODING 34
SWIDTH 389 0
DWIDTH 19 0
BBX 19 13 0 23
BITMAP
3F1F80
3F1F80
3F1F80
3F1F80
3F1F80
3F1F80
3F1F80
3F1F80
3F1F80
3F1F80
1E0F00
1E0F00
1E0F00
ENDCHAR

STARTCHAR numbersign
ENCODING 35
SWIDTH 456 0
DWIDTH 23 0
BBX 25 38 -1 -1
BITMAP
00783C00
00787C00
00F87C00
00F87C00
00F07C00
00F07800
00F07800
00F0F800
01F0F800
01F0F800
7FFFFE00
7FFFFE00
7FFFFE00
7FFFFE00
7FFFFE00
03E1F000
03E1F000
03C1E000
03C1E000
03C1E000
07C3E000
07C3E000
07C3E000
7FFFFE00
7FFFFE00
7FFFFE00
7FFFFE00
7FFFFE00
0F87C000
0F878000
0F078000
0F078000
0F078000
1F0F8000
1F0F8000
1F0F0000
1E0F0000
1E0F0000
ENDCHAR

STARTCHAR dollar
ENCODING 36
SWIDTH 456 0
DWIDTH 23 0
BBX 25 44 0 -5
BITMAP
00380000
00380000
00FE0000
03FF8000
07FFC000
0FFFE000
0FFFE000
1FBBF000
1F3BF000
1F39F000
1F39C000
3F380000
1F380000
1F380000
1FB80000
1FF80000
1FF80000
0FFE0000
0FFF8000
07FFC000
03FFE000
01FFF000
007FF000
003FF800
003BF800
0039F800
0038F800
0038F800
1E38F800
3E38F800
3F38F800
3F38F800
3FB9F800
1FFBF000
1FFFF000
0FFFE000
0FFFC000
07FF8000
01FF0000
00780000
00380000
00380000
00380000
00380000
ENDCHAR

STARTCHAR percent
ENCODING 37
SWIDTH 729 0
DWIDTH 36 0
BBX 36 38 0 -1
BITMAP
03E000F000
0FF800F000
0FFC01E000
1FFC01E000
1E3E03C000
3E3E03C000
3E3E03C000
3C1E078000
3C1E078000
3C1E0F0000
3C1E0F0000
3C1E0F0000
3E3E1E0000
3E3E1E0000
1E3C3C0000
1FFC3C0000
0FFC7C0000
0FF8780000
03E0780000
0000F03E00
0000F0FF00
0001F0FF80
0001E1FFC0
0001E1E7C0
0003C3E3C0
0003C3C3E0
0007C3C3E0
000783C3E0
000F83C3E0
000F03C3E0
000F03C3E0
001F03C3E0
001E03E3C0
003E01E7C0
003C01FFC0
003C00FF80
007C00FF00
0078003E00
ENDCHAR

STARTCHAR ampersand
ENCODING 38
SWIDTH 592 0
DWIDTH 30 0
BBX 30 38 1 -1
BITMAP
001F0000
00FFC000
01FFE000
03FFF000
03FFF000
03F1F800
07E0F800
07E0F800
07E0F800
07E0F800
07F1F800
03F1F000
03FBF000
03FFE000
01FFE000
01FFC000
01FF0000
03FF0000
07FF8000
0FFF8000
1FFFC700
1F9FC7C0
3F0FEFC0
3F07FFC0
7E07FF80
7E03FF80
7E01FF80
7E01FF00
7E00FF00
7E00FF00
3F01FF80
3F83FFE0
3FFFFFF0
1FFFFFF0
0FFFEFE0
07FFC7C0
03FF81C0
00FC0080
ENDCHAR

STARTCHAR quoteright
ENCODING 39
SWIDTH 228 0
DWIDTH 11 0
BBX 9 15 0 21
BITMAP
3F00
3F00
3F00
3F00
3F00
3F00
3F00
0700
0700
0600
0E00
1E00
3C00
3800
1000
ENDCHAR

STARTCHAR parenleft
ENCODING 40
SWIDTH 273 0
DWIDTH 14 0
BBX 14 47 0 -10
BITMAP
00F0
01F0
01E0
03E0
03E0
07C0
07C0
07C0
0F80
0F80
0F80
1F80
1F00
1F00
1F00
1F00
3F00
3F00
3E00
3E00
3E00
3E00
3E00
3E00
3E00
3E00
3E00
3E00
3E00
3F00
3F00
1F00
1F00
1F00
1F00
1F80
0F80
0F80
0F80
0780
07C0
07C0
03C0
03E0
01E0
01E0
00F0
ENDCHAR

STARTCHAR parenright
ENCODING 41
SWIDTH 273 0
DWIDTH 14 0
BBX 13 47 0 -10
BITMAP
7800
3C00
3C00
3E00
1E00
1F00
1F00
0F00
0F80
0F80
0F80
07C0
07C0
07C0
07C0
07E0
07E0
07E0
03E0
03E0
03E0
03E0
03E0
03E0
03E0
03E0
03E0
03E0
03E0
03E0
07E0
07C0
07C0
07C0
07C0
07C0
0F80
0F80
0F80
0F00
1F00
1E00
1E00
3E00
3C00
3C00
7800
ENDCHAR

STARTCHAR asterisk
ENCODING 42
SWIDTH 319 0
DWIDTH 16 0
BBX 18 17 -1 19
BITMAP
01E000
01E000
01C000
01C000
19C200
3DCF00
3FFF00
3FFF00
1FFE00
01E000
03F000
07F800
0F7800
1F3C00
1E3C00
0E1800
041000
ENDCHAR

STARTCHAR plus
ENCODING 43
SWIDTH 479 0
DWIDTH 24 0
BBX 23 25 0 6
BITMAP
007C00
007C00
007C00
007C00
007C00
007C00
007C00
007C00
007C00
007C00
7FFFFC
7FFFFC
7FFFFC
7FFFFC
7FFFFC
7FFFFC
007C00
007C00
007C00
007C00
007C00
007C00
007C00
007C00
007C00
ENDCHAR

STARTCHAR comma
ENCODING 44
SWIDTH 228 0
DWIDTH 11 0
BBX 9 15 1 -8
BITMAP
3F00
3F00
3F00
3F00
3F00
3F00
3F00
0700
0700
0600
0E00
1E00
3C00
3800
1000
ENDCHAR

STARTCHAR minus
ENCODING 45
SWIDTH 479 0
DWIDTH 24 0
BBX 24 6 0 15
BITMAP
3FFFFC
3FFFFC
3FFFFC
3FFFFC
3FFFFC
3FFFFC
ENDCHAR

STARTCHAR period
ENCODING 46
SWIDTH 228 0
DWIDTH 11 0
BBX 8 7 2 0
BITMAP
7E
7E
7E
7E
7E
7E
7E
ENDCHAR

STARTCHAR slash
ENCODING 47
SWIDTH 228 0
DWIDTH 11 0
BBX 15 37 -2 -1
BITMAP
0078
0078
0078
00F8
00F8
00F0
00F0
00F0
00F0
01F0
01E0
01E0
01E0
01E0
03E0
03C0
03C0
03C0
03C0
07C0
0780
0780
0780
0780
0F80
0F00
0F00
0F00
0F00
1F00
1E00
1E00
1E00
1E00
3E00
3C00
3C00
ENDCHAR

STARTCHAR zero
ENCODING 48
SWIDTH 456 0
DWIDTH 23 0
BBX 21 37 1 -1
BITMAP
00F800
03FE00
07FF00
0FFF80
0FFFC0
1FFFC0
1F8FC0
3F07E0
3F07E0
3F03E0
3E03E0
3E03F0
7E03F0
7E03F0
7E03F0
7E03F0
7E03F0
7E03F0
7E03F0
7E03F0
7E03F0
7E03F0
7E03F0
7E03F0
7E03F0
3E03F0
3E03E0
3F03E0
3F07E0
3F07E0
1F8FC0
1FFFC0
0FFFC0
0FFF80
07FF00
03FE00
00F800
ENDCHAR

STARTCHAR one
ENCODING 49
SWIDTH 456 0
DWIDTH 23 0
BBX 16 36 1 0
BITMAP
003E
003E
007E
007E
00FE
01FE
03FE
07FE
1FFE
3FFE
3FFE
3F7E
3E7E
387E
307E
007E
007E
007E
007E
007E
007E
007E
007E
007E
007E
007E
007E
007E
007E
007E
007E
007E
007E
007E
007E
007E
ENDCHAR

STARTCHAR two
ENCODING 50
SWIDTH 456 0
DWIDTH 23 0
BBX 22 36 0 0
BITMAP
007C00
03FF80
07FFC0
0FFFE0
1FFFE0
1FFFF0
1F83F0
3F01F8
3F01F8
3F01F8
1E01F8
0001F8
0001F8
0001F0
0003F0
0007F0
0007E0
000FE0
001FC0
003FC0
007F80
00FF00
00FE00
01FC00
03FC00
07F800
07F000
0FE000
1FC000
1FC000
1FFFF8
3FFFF8
3FFFF8
3FFFF8
7FFFF8
7FFFF8
ENDCHAR

STARTCHAR three
ENCODING 51
SWIDTH 456 0
DWIDTH 23 0
BBX 23 37 0 -1
BITMAP
007C00
03FF00
07FF80
0FFFC0
0FFFE0
1FFFE0
1F87F0
3F03F0
3F03F0
0603F0
0003F0
0003F0
0007E0
000FE0
007FC0
007F80
007F00
007FC0
007FE0
0007F0
0003F0
0003F8
0001F8
0001F8
0001F8
0001F8
1E01F8
3E01F8
3F01F8
3F03F0
3F87F0
1FFFE0
1FFFE0
0FFFC0
07FF80
03FF00
007800
ENDCHAR

STARTCHAR four
ENCODING 52
SWIDTH 456 0
DWIDTH 23 0
BBX 24 36 -1 0
BITMAP
0003E0
0003E0
0007E0
0007E0
000FE0
000FE0
001FE0
003FE0
003FE0
007FE0
007FE0
00FBE0
00FBE0
01F3E0
01F3E0
03E3E0
07E3E0
07C3E0
0F83E0
0F83E0
1F03E0
1F03E0
3E03E0
3FFFFE
3FFFFE
3FFFFE
3FFFFE
3FFFFE
3FFFFE
0003E0
0003E0
0003E0
0003E0
0003E0
0003E0
0003E0
ENDCHAR

STARTCHAR five
ENCODING 53
SWIDTH 456 0
DWIDTH 23 0
BBX 22 36 1 -1
BITMAP
07FFF0
0FFFF0
0FFFF0
0FFFF0
0FFFF0
0FFFF0
0F8000
0F8000
1F8000
1F8000
1F0000
1F7E00
1FFF80
1FFFC0
3FFFE0
3FFFE0
3FCFF0
3F03F0
0E03F0
0001F8
0001F8
0001F8
0001F8
0001F8
0001F8
0E01F8
7E01F8
7E03F0
3F03F0
3F87F0
1FFFE0
1FFFC0
0FFFC0
07FF80
03FE00
00F800
ENDCHAR

STARTCHAR six
ENCODING 54
SWIDTH 456 0
DWIDTH 23 0
BBX 23 37 0 -1
BITMAP
003E00
00FF80
01FFC0
03FFE0
07FFF0
0FFFF0
0FC3F8
0FC1F8
1F81F8
1F80E0
1F0000
3F0000
3F0000
3F1F00
3F7FC0
3FFFE0
3FFFE0
3FFFF0
3FC3F8
3F81F8
3F81F8
3F80FC
3F00FC
3F00FC
3F00FC
3F00FC
1F80FC
1F80FC
1F80F8
1FC1F8
0FE3F8
0FFFF0
07FFF0
07FFE0
03FFC0
00FF80
003E00
ENDCHAR

STARTCHAR seven
ENCODING 55
SWIDTH 456 0
DWIDTH 23 0
BBX 23 35 0 0
BITMAP
3FFFF8
3FFFF8
3FFFF8
3FFFF8
3FFFF8
3FFFF8
0003F0
0003E0
0007E0
0007C0
000F80
000F80
001F80
001F00
003F00
003E00
003E00
007C00
007C00
007C00
00F800
00F800
00F800
01F800
01F000
01F000
01F000
01F000
03F000
03F000
03E000
03E000
03E000
03E000
03E000
ENDCHAR

STARTCHAR eight
ENCODING 56
SWIDTH 456 0
DWIDTH 23 0
BBX 23 37 0 -1
BITMAP
01FE00
07FF80
0FFFC0
1FFFE0
1FFFE0
3FC7F0
3F03F0
3F03F0
3E01F0
3E01F0
3E01F0
3F03F0
1F03F0
1FC7E0
0FFFC0
07FF80
03FF00
07FFC0
0FFFE0
1FCFF0
3F03F0
3F03F0
3E01F8
7E01F8
7E01F8
7E01F8
7E01F8
7E01F8
3F01F8
3F03F0
3F87F0
1FFFE0
1FFFE0
0FFFC0
07FF80
03FF00
007800
ENDCHAR

STARTCHAR nine
ENCODING 57
SWIDTH 456 0
DWIDTH 23 0
BBX 23 37 0 -1
BITMAP
00F800
03FE00
07FF80
0FFFC0
1FFFC0
1FFFE0
3F8FF0
3F07F0
3E03F0
7E03F0
7E01F8
7E01F8
7E01F8
7E01F8
7E01F8
3E03F8
3F03F8
3F03F8
1F87F8
1FFFF8
0FFFF8
07FFF8
03FDF8
00F1F8
0001F8
0001F8
0001F0
1E03F0
3F03F0
3F07F0
3F87E0
1FFFE0
1FFFC0
0FFF80
07FF00
03FE00
00F800
ENDCHAR

STARTCHAR colon
ENCODING 58
SWIDTH 273 0
DWIDTH 14 0
BBX 8 26 3 0
BITMAP
7E
7E
7E
7E
7E
7E
7E
00
00
00
00
00
00
00
00
00
00
00
00
7E
7E
7E
7E
7E
7E
7E
ENDCHAR

STARTCHAR semicolon
ENCODING 59
SWIDTH 273 0
DWIDTH 14 0
BBX 9 34 2 -8
BITMAP
3F00
3F00
3F00
3F00
3F00
3F00
3F00
0000
0000
0000
0000
0000
0000
0000
0000
0000
0000
0000
0000
3F00
3F00
3F00
3F00
3F00
3F00
3F00
0700
0700
0600
0E00
1E00
3C00
3800
1000
ENDCHAR

STARTCHAR less
ENCODING 60
SWIDTH 479 0
DWIDTH 24 0
BBX 24 27 0 4
BITMAP
000004
00001C
00007C
0001FC
0007FC
001FFC
007FFC
01FFF0
03FFC0
0FFF00
3FFC00
3FF000
3FC000
3F8000
3FE000
3FF800
3FFE00
0FFF80
03FFE0
00FFF8
003FFC
000FFC
0003FC
0000FC
00003C
00000C
000004
ENDCHAR

STARTCHAR equal
ENCODING 61
SWIDTH 479 0
DWIDTH 24 0
BBX 24 17 0 10
BITMAP
3FFFFC
3FFFFC
3FFFFC
3FFFFC
3FFFFC
3FFFFC
000000
000000
000000
000000
000000
3FFFFC
3FFFFC
3FFFFC
3FFFFC
3FFFFC
3FFFFC
ENDCHAR

STARTCHAR greater
ENCODING 62
SWIDTH 479 0
DWIDTH 24 0
BBX 24 27 0 4
BITMAP
200000
380000
3E0000
3F8000
3FE000
3FF800
3FFE00
0FFF80
03FFE0
00FFF0
003FFC
000FFC
0003FC
0000FC
0003FC
001FFC
007FFC
01FFF0
07FFC0
1FFF00
3FFC00
3FF000
3FC000
3F0000
3E0000
380000
200000
ENDCHAR

STARTCHAR question
ENCODING 63
SWIDTH 501 0
DWIDTH 25 0
BBX 24 37 0 0
BITMAP
00FF00
03FFC0
07FFE0
0FFFF0
1FFFF8
1FC3FC
3F80FC
3F00FC
3E007E
3E007E
3E007E
00007E
0000FC
0000FC
0001FC
0003F8
0007F0
000FF0
001FE0
001FC0
003F80
003F00
007E00
007E00
007C00
007C00
007C00
000000
000000
000000
007E00
007E00
007E00
007E00
007E00
007E00
007E00
ENDCHAR

STARTCHAR at
ENCODING 64
SWIDTH 800 0
DWIDTH 40 0
BBX 41 47 0 -10
BITMAP
0000FFE00000
0003FFFC0000
000FFFFE0000
003FFFFF8000
007FE07FC000
00FE000FE000
01F80003E000
03F00001F000
03E00000F800
07C000007800
07807E7E7800
0F01FF7C3C00
0F03FFFC3C00
1E07FFFC1C00
1E0FE7FC1E00
1E0F81FC1E00
3C1F81FC1E00
3C1F00F81E00
3C3E00F81E00
383E00F81E00
783E00F81E00
787E00F81E00
787C00F81E00
787C00F81C00
787C01F03C00
787C01F03C00
787C01F07C00
787C01F07800
787C03F0F800
387E03F0F000
387E07E1F000
3C3F0FF7E000
3C3FFFFFC000
3C1FFFFF8000
1E0FFFFF0000
1E07FBFE0000
0F01E0F80F00
0F8000001E00
07C000003E00
07E000007C00
03F00000FC00
01FE0003F800
00FFC03FF000
007FFFFFE000
001FFFFF8000
0007FFFE0000
0000FFF00000
ENDCHAR

STARTCHAR A
ENCODING 65
SWIDTH 592 0
DWIDTH 30 0
BBX 32 36 -1 0
BITMAP
000FE000
000FE000
000FF000
001FF000
001FF000
001FF800
003FF800
003FF800
003FFC00
003EFC00
007EFC00
007E7E00
007C7E00
00FC7E00
00FC7F00
00FC3F00
01F83F00
01F83F80
01F81F80
03F01F80
03F01FC0
03F00FC0
07FFFFC0
07FFFFE0
07FFFFE0
0FFFFFE0
0FFFFFF0
0FFFFFF0
0FC003F0
1F8003F0
1F8003F8
1F8001F8
3F0001F8
3F0001FC
3F0000FC
7F0000FC
ENDCHAR

STARTCHAR B
ENCODING 66
SWIDTH 592 0
DWIDTH 30 0
BBX 27 36 2 0
BITMAP
7FFFC000
7FFFF000
7FFFF800
7FFFFC00
7FFFFE00
7FFFFE00
7E007F00
7E003F00
7E003F00
7E003F00
7E003F00
7E003F00
7E003E00
7E00FE00
7FFFFC00
7FFFF800
7FFFF000
7FFFFC00
7FFFFE00
7FFFFF00
7E00FF00
7E003F80
7E001F80
7E001F80
7E001F80
7E001F80
7E001F80
7E001F80
7E003F80
7E007F00
7FFFFF00
7FFFFF00
7FFFFE00
7FFFFC00
7FFFF800
7FFFE000
ENDCHAR

STARTCHAR C
ENCODING 67
SWIDTH 592 0
DWIDTH 30 0
BBX 29 38 0 -1
BITMAP
000FF000
003FFC00
00FFFE00
01FFFF00
03FFFF80
07FFFFC0
07F87FC0
0FF01FE0
0FE00FE0
1FC007E0
1F8007E0
1F800780
1F800000
3F800000
3F000000
3F000000
3F000000
3F000000
3F000000
3F000000
3F000000
3F000000
3F000000
3F000000
3F800200
1F8007C0
1F8007E0
1F8007E0
1FC00FE0
0FE00FE0
0FF01FC0
07F87FC0
07FFFF80
03FFFF80
01FFFF00
00FFFE00
003FF800
000FE000
ENDCHAR

STARTCHAR D
ENCODING 68
SWIDTH 592 0
DWIDTH 30 0
BBX 28 36 2 0
BITMAP
7FFF8000
7FFFF000
7FFFF800
7FFFFC00
7FFFFE00
7FFFFE00
7E01FF00
7E007F00
7E003F80
7E001F80
7E001F80
7E001F80
7E000FC0
7E000FC0
7E000FC0
7E000FC0
7E000FC0
7E000FC0
7E000FC0
7E000FC0
7E000FC0
7E000FC0
7E000FC0
7E000FC0
7E001FC0
7E001F80
7E001F80
7E003F80
7E007F00
7E01FF00
7FFFFE00
7FFFFE00
7FFFFC00
7FFFF800
7FFFE000
7FFF8000
ENDCHAR

STARTCHAR E
ENCODING 69
SWIDTH 547 0
DWIDTH 27 0
BBX 25 36 2 0
BITMAP
7FFFFE00
7FFFFE00
7FFFFE00
7FFFFE00
7FFFFE00
7FFFFE00
7E000000
7E000000
7E000000
7E000000
7E000000
7E000000
7E000000
7E000000
7FFFFC00
7FFFFC00
7FFFFC00
7FFFFC00
7FFFFC00
7FFFFC00
7E000000
7E000000
7E000000
7E000000
7E000000
7E000000
7E000000
7E000000
7E000000
7E000000
7FFFFE00
7FFFFE00
7FFFFE00
7FFFFE00
7FFFFE00
7FFFFE00
ENDCHAR

STARTCHAR F
ENCODING 70
SWIDTH 501 0
DWIDTH 25 0
BBX 23 36 2 0
BITMAP
7FFFF8
7FFFF8
7FFFF8
7FFFF8
7FFFF8
7FFFF8
7E0000
7E0000
7E0000
7E0000
7E0000
7E0000
7E0000
7E0000
7E0000
7FFFE0
7FFFE0
7FFFE0
7FFFE0
7FFFE0
7FFFE0
7E0000
7E0000
7E0000
7E0000
7E0000
7E0000
7E0000
7E0000
7E0000
7E0000
7E0000
7E0000
7E0000
7E0000
7E0000
ENDCHAR

STARTCHAR G
ENCODING 71
SWIDTH 638 0
DWIDTH 32 0
BBX 30 38 0 -1
BITMAP
000FF800
003FFE00
00FFFF00
01FFFF80
03FFFFC0
03FFFFE0
07FC3FE0
0FF00FF0
0FE007F0
0FC003F0
1FC003F8
1F8001C0
1F800000
3F800000
3F000000
3F000000
3F000000
3F000000
3F00FFF8
3F00FFF8
3F00FFF8
3F00FFF8
3F00FFF8
3F00FFF8
3F8001F8
1F8001F8
1F8001F8
1FC001F8
0FC001F8
0FE003F8
0FF007F8
07FC1FF8
03FFFFF8
01FFFFF0
01FFFFE0
007FFF80
003FFE00
0007F800
ENDCHAR

STARTCHAR H
ENCODING 72
SWIDTH 592 0
DWIDTH 30 0
BBX 26 36 2 0
BITMAP
7E001F80
7E001F80
7E001F80
7E001F80
7E001F80
7E001F80
7E001F80
7E001F80
7E001F80
7E001F80
7E001F80
7E001F80
7E001F80
7E001F80
7FFFFF80
7FFFFF80
7FFFFF80
7FFFFF80
7FFFFF80
7FFFFF80
7E001F80
7E001F80
7E001F80
7E001F80
7E001F80
7E001F80
7E001F80
7E001F80
7E001F80
7E001F80
7E001F80
7E001F80
7E001F80
7E001F80
7E001F80
7E001F80
ENDCHAR

STARTCHAR I
ENCODING 73
SWIDTH 228 0
DWIDTH 11 0
BBX 8 36 2 0
BITMAP
7E
7E
7E
7E
7E
7E
7E
7E
7E
7E
7E
7E
7E
7E
7E
7E
7E
7E
7E
7E
7E
7E
7E
7E
7E
7E
7E
7E
7E
7E
7E
7E
7E
7E
7E
7E
ENDCHAR

STARTCHAR J
ENCODING 74
SWIDTH 456 0
DWIDTH 23 0
BBX 21 37 0 -1
BITMAP
0003F0
0003F0
0003F0
0003F0
0003F0
0003F0
0003F0
0003F0
0003F0
0003F0
0003F0
0003F0
0003F0
0003F0
0003F0
0003F0
0003F0
0003F0
0003F0
0003F0
0003F0
0003F0
0003F0
0003F0
1E03F0
7E03F0
7E03F0
7E03F0
7F03F0
3F07E0
3F8FE0
3FFFE0
1FFFC0
1FFFC0
0FFF80
07FF00
01FC00
ENDCHAR

STARTCHAR K
ENCODING 75
SWIDTH 592 0
DWIDTH 30 0
BBX 29 36 2 0
BITMAP
7E001FE0
7E003FC0
7E007F80
7E00FF00
7E00FE00
7E01FE00
7E03FC00
7E07F800
7E07F000
7E0FE000
7E1FE000
7E3FC000
7E3F8000
7E7F0000
7EFF0000
7FFF8000
7FFF8000
7FFFC000
7FFFC000
7FFFE000
7FEFE000
7FC7F000
7F87F000
7F03F800
7E03F800
7E01FC00
7E01FE00
7E00FE00
7E00FF00
7E007F00
7E007F80
7E003F80
7E003FC0
7E001FC0
7E001FE0
7E000FE0
ENDCHAR

STARTCHAR L
ENCODING 76
SWIDTH 501 0
DWIDTH 25 0
BBX 23 35 2 0
BITMAP
7E0000
7E0000
7E0000
7E0000
7E0000
7E0000
7E0000
7E0000
7E0000
7E0000
7E0000
7E0000
7E0000
7E0000
7E0000
7E0000
7E0000
7E0000
7E0000
7E0000
7E0000
7E0000
7E0000
7E0000
7E0000
7E0000
7E0000
7E0000
7E0000
7FFFFC
7FFFFC
7FFFFC
7FFFFC
7FFFFC
7FFFFC
ENDCHAR

STARTCHAR M
ENCODING 77
SWIDTH 683 0
DWIDTH 34 0
BBX 31 36 2 0
BITMAP
7FC007FC
7FE007FC
7FE00FFC
7FE00FFC
7FE00FFC
7FE00FFC
7FF01FFC
7FF01FFC
7FF01FFC
7FF01FFC
7FF01FFC
7EF83EFC
7EF83EFC
7EF83EFC
7EF83EFC
7EFC3EFC
7E7C7CFC
7E7C7CFC
7E7C7CFC
7E7C7CFC
7E7EFCFC
7E3EF8FC
7E3EF8FC
7E3EF8FC
7E3FF8FC
7E3FF8FC
7E1FF0FC
7E1FF0FC
7E1FF0FC
7E1FF0FC
7E0FE0FC
7E0FE0FC
7E0FE0FC
7E0FE0FC
7E0FE0FC
7E07C0FC
ENDCHAR

STARTCHAR N
ENCODING 78
SWIDTH 592 0
DWIDTH 30 0
BBX 26 36 2 0
BITMAP
7E001F80
7F001F80
7F001F80
7F801F80
7F801F80
7FC01F80
7FC01F80
7FE01F80
7FE01F80
7FF01F80
7FF01F80
7FF81F80
7FF81F80
7FFC1F80
7EFC1F80
7EFE1F80
7E7E1F80
7E7F1F80
7E3F1F80
7E3F9F80
7E1F9F80
7E1FDF80
7E0FFF80
7E0FFF80
7E07FF80
7E07FF80
7E03FF80
7E03FF80
7E01FF80
7E01FF80
7E00FF80
7E00FF80
7E007F80
7E007F80
7E003F80
7E001F80
ENDCHAR

STARTCHAR O
ENCODING 79
SWIDTH 638 0
DWIDTH 32 0
BBX 32 38 0 -1
BITMAP
000FF000
003FFC00
00FFFF00
01FFFF80
03FFFFC0
07FFFFE0
07FC3FE0
0FF00FF0
0FE007F0
1FC003F8
1FC001F8
1F8001F8
1F8001FC
3F8001FC
3F0000FC
3F0000FC
3F0000FC
3F0000FC
3F0000FC
3F0000FC
3F0000FC
3F0000FC
3F0000FC
3F0000FC
3F8001FC
1F8001F8
1F8001F8
1FC003F8
1FC003F8
0FE007F0
0FF00FF0
07FC3FE0
07FFFFE0
03FFFFC0
01FFFF80
00FFFF00
003FFC00
000FF000
ENDCHAR

STARTCHAR P
ENCODING 80
SWIDTH 547 0
DWIDTH 27 0
BBX 26 36 2 0
BITMAP
7FFFC000
7FFFF000
7FFFF800
7FFFFC00
7FFFFE00
7FFFFE00
7E01FF00
7E007F00
7E007F00
7E003F00
7E003F00
7E003F00
7E003F00
7E007F00
7E007F00
7E01FE00
7FFFFE00
7FFFFE00
7FFFFC00
7FFFF800
7FFFF000
7FFFC000
7E000000
7E000000
7E000000
7E000000
7E000000
7E000000
7E000000
7E000000
7E000000
7E000000
7E000000
7E000000
7E000000
7E000000
ENDCHAR

STARTCHAR Q
ENCODING 81
SWIDTH 638 0
DWIDTH 32 0
BBX 33 41 0 -4
BITMAP
000FF00000
003FFE0000
00FFFF0000
01FFFF8000
03FFFFC000
07FFFFE000
07FC3FE000
0FF00FF000
0FE007F000
1FC003F800
1FC003F800
1F8001F800
1F8001FC00
3F8001FC00
3F0000FC00
3F0000FC00
3F0000FC00
3F0000FC00
3F0000FC00
3F0000FC00
3F0000FC00
3F0000FC00
3F0000FC00
3F0000FC00
3F8001FC00
1F80C1FC00
1F80E1F800
1FC1FBF800
1FC1FFF800
0FE0FFF000
0FF07FF000
07FC3FE000
07FFFFE000
03FFFFE000
01FFFFF800
00FFFFFC00
003FFFFE00
000FF0FE00
0000007C00
0000003C00
0000000800
ENDCHAR

STARTCHAR R
ENCODING 82
SWIDTH 592 0
DWIDTH 30 0
BBX 29 36 2 0
BITMAP
7FFFE000
7FFFF800
7FFFFE00
7FFFFE00
7FFFFF00
7FFFFF00
7E007F80
7E003F80
7E001F80
7E001F80
7E001F80
7E001F80
7E001F80
7E003F80
7E007F00
7FFFFF00
7FFFFE00
7FFFFC00
7FFFF800
7FFFE000
7FFFC000
7E0FE000
7E07F000
7E03F800
7E03FC00
7E01FC00
7E01FE00
7E00FE00
7E00FF00
7E007F00
7E007F80
7E003F80
7E003FC0
7E001FC0
7E000FE0
7E000FE0
ENDCHAR

STARTCHAR S
ENCODING 83
SWIDTH 547 0
DWIDTH 27 0
BBX 26 38 0 -1
BITMAP
007F8000
01FFE000
07FFF800
07FFFC00
0FFFFC00
1FFFFE00
1FE1FE00
1F80FF00
3F007F00
3F003F00
3F003F00
3F003F00
3F800000
3FC00000
1FF80000
1FFF0000
0FFFE000
0FFFF800
07FFFC00
01FFFE00
007FFE00
001FFF00
0001FF00
00007F80
00003F80
3E001F80
7E001F80
7F001F80
3F001F80
3F003F80
3F807F00
3FE0FF00
1FFFFF00
0FFFFE00
0FFFFC00
07FFF800
01FFF000
007FC000
ENDCHAR

STARTCHAR T
ENCODING 84
SWIDTH 501 0
DWIDTH 25 0
BBX 26 36 -1 0
BITMAP
7FFFFF80
7FFFFF80
7FFFFF80
7FFFFF80
7FFFFF80
7FFFFF80
003F0000
003F0000
003F0000
003F0000
003F0000
003F0000
003F0000
003F0000
003F0000
003F0000
003F0000
003F0000
003F0000
003F0000
003F0000
003F0000
003F0000
003F0000
003F0000
003F0000
003F0000
003F0000
003F0000
003F0000
003F0000
003F0000
003F0000
003F0000
003F0000
003F0000
ENDCHAR

STARTCHAR U
ENCODING 85
SWIDTH 592 0
DWIDTH 30 0
BBX 26 37 2 -1
BITMAP
7E001F80
7E001F80
7E001F80
7E001F80
7E001F80
7E001F80
7E001F80
7E001F80
7E001F80
7E001F80
7E001F80
7E001F80
7E001F80
7E001F80
7E001F80
7E001F80
7E001F80
7E001F80
7E001F80
7E001F80
7E001F80
7E001F80
7E001F80
7E001F80
7E001F80
7E001F80
7E001F80
7F003F80
3F003F00
3F807F00
3FE0FF00
1FFFFF00
1FFFFE00
0FFFFC00
07FFF800
03FFF000
00FFC000
ENDCHAR

STARTCHAR V
ENCODING 86
SWIDTH 547 0
DWIDTH 27 0
BBX 30 36 -1 0
BITMAP
7F0003F0
7F0003F0
3F0007F0
3F0007E0
3F8007E0
1F8007E0
1F800FC0
1FC00FC0
1FC00FC0
0FC00FC0
0FC01F80
0FE01F80
07E01F80
07E03F00
07F03F00
03F03F00
03F03F00
03F07E00
03F87E00
01F87E00
01F87C00
01F8FC00
00FCFC00
00FCF800
00FDF800
00FFF800
007FF800
007FF000
007FF000
003FF000
003FE000
003FE000
003FE000
001FE000
001FC000
001FC000
ENDCHAR

STARTCHAR W
ENCODING 87
SWIDTH 774 0
DWIDTH 39 0
BBX 41 36 -1 0
BITMAP
7E007F003E00
7E007F007E00
3F00FF807E00
3F00FF807E00
3F00FF807E00
3F00FF807C00
3F00FF807C00
1F81FFC0FC00
1F81FFC0FC00
1F81FFC0FC00
1F81F7C0FC00
1F83F7C0F800
0F83F7E1F800
0FC3E7E1F800
0FC3E7E1F800
0FC3E3E1F800
0FC7E3E1F000
0FC7E3F1F000
07C7C3F3F000
07E7C1F3F000
07E7C1F3F000
07EFC1F3E000
07EF81FBE000
03EF81FFE000
03FF80FFE000
03FF80FFE000
03FF80FFC000
03FF00FFC000
01FF007FC000
01FF007FC000
01FF007FC000
01FE007F8000
01FE007F8000
00FE003F8000
00FE003F8000
00FE003F8000
ENDCHAR

STARTCHAR X
ENCODING 88
SWIDTH 547 0
DWIDTH 27 0
BBX 30 36 -1 0
BITMAP
3F800FE0
1FC00FE0
1FC01FC0
0FE01FC0
0FE03F80
07F03F80
07F07F00
03F87E00
03F8FE00
01FCFC00
00FDFC00
00FFF800
007FF800
007FF000
003FF000
003FE000
001FE000
001FC000
003FE000
003FE000
007FF000
007FF000
00FFF800
00FFFC00
01FDFC00
01FCFE00
03F8FE00
03F87F00
07F07F00
07F03F80
0FE03F80
1FC01FC0
1FC01FC0
3F800FE0
3F800FF0
7F0007F0
ENDCHAR

STARTCHAR Y
ENCODING 89
SWIDTH 547 0
DWIDTH 27 0
BBX 30 36 -1 0
BITMAP
3F8003F8
3F8007F0
1FC007E0
1FC00FE0
0FC00FC0
0FE01FC0
07E01F80
07F03F80
03F03F00
03F87F00
01F87E00
01FCFE00
00FCFC00
00FEFC00
007FF800
007FF800
003FF000
003FF000
001FE000
001FE000
000FC000
000FC000
000FC000
000FC000
000FC000
000FC000
000FC000
000FC000
000FC000
000FC000
000FC000
000FC000
000FC000
000FC000
000FC000
000FC000
ENDCHAR

STARTCHAR Z
ENCODING 90
SWIDTH 501 0
DWIDTH 25 0
BBX 27 36 -1 0
BITMAP
1FFFFF80
1FFFFF80
1FFFFF80
1FFFFF80
1FFFFF80
1FFFFF80
00007F00
0000FE00
0001FE00
0001FC00
0003F800
0007F800
0007F000
000FE000
001FE000
001FC000
003F8000
007F8000
007F0000
00FE0000
01FE0000
01FC0000
03F80000
07F80000
07F00000
0FE00000
1FE00000
1FC00000
3F800000
7F800000
7FFFFF80
7FFFFF80
7FFFFF80
7FFFFF80
7FFFFF80
7FFFFF80
ENDCHAR

STARTCHAR bracketleft
ENCODING 91
SWIDTH 273 0
DWIDTH 14 0
BBX 13 46 1 -10
BITMAP
3FF0
3FF0
3FF0
3FF0
3FF0
3E00
3E00
3E00
3E00
3E00
3E00
3E00
3E00
3E00
3E00
3E00
3E00
3E00
3E00
3E00
3E00
3E00
3E00
3E00
3E00
3E00
3E00
3E00
3E00
3E00
3E00
3E00
3E00
3E00
3E00
3E00
3E00
3E00
3E00
3E00
3E00
3FF0
3FF0
3FF0
3FF0
3FF0
ENDCHAR

STARTCHAR backslash
ENCODING 92
SWIDTH 228 0
DWIDTH 11 0
BBX 15 37 -2 -1
BITMAP
3C00
3C00
3E00
1E00
1E00
1E00
1E00
1F00
0F00
0F00
0F00
0F00
0F80
0780
0780
0780
0780
07C0
03C0
03C0
03C0
03C0
03E0
01E0
01E0
01E0
01E0
01F0
00F0
00F0
00F0
00F0
00F8
0078
0078
0078
0078
ENDCHAR

STARTCHAR bracketright
ENCODING 93
SWIDTH 273 0
DWIDTH 14 0
BBX 13 46 0 -10
BITMAP
7FE0
7FE0
7FE0
7FE0
7FE0
03E0
03E0
03E0
03E0
03E0
03E0
03E0
03E0
03E0
03E0
03E0
03E0
03E0
03E0
03E0
03E0
03E0
03E0
03E0
03E0
03E0
03E0
03E0
03E0
03E0
03E0
03E0
03E0
03E0
03E0
03E0
03E0
03E0
03E0
03E0
03E0
7FE0
7FE0
7FE0
7FE0
7FE0
ENDCHAR

STARTCHAR asciicircum
ENCODING 94
SWIDTH 479 0
DWIDTH 24 0
BBX 22 19 1 17
BITMAP
007C00
00FC00
00FC00
00FE00
01FE00
01FE00
03FF00
03FF00
03FF80
07CF80
07CF80
0FCFC0
0F87C0
0F87C0
1F87E0
1F03E0
1F03F0
3F03F0
3E01F0
ENDCHAR

STARTCHAR underscore
ENCODING 95
SWIDTH 456 0
DWIDTH 23 0
BBX 29 3 -3 -6
BITMAP
3FFFFFE0
3FFFFFE0
3FFFFFE0
ENDCHAR

STARTCHAR quoteleft
ENCODING 96
SWIDTH 228 0
DWIDTH 11 0
BBX 9 15 2 21
BITMAP
0400
0E00
1E00
3C00
3800
3800
7000
7000
7E00
7E00
7E00
7E00
7E00
7E00
7E00
ENDCHAR

STARTCHAR a
ENCODING 97
SWIDTH 456 0
DWIDTH 23 0
BBX 22 28 0 -1
BITMAP
01FE00
07FF80
0FFFC0
1FFFE0
1FFFE0
3F87F0
3F03F0
3E03F0
0003F0
0003F0
000FF0
007FF0
03FFF0
0FFFF0
1FFFF0
3FE3F0
3F03F0
3E03F0
7E03F0
7E03F0
7E03F0
7E07F0
3F0FF0
3FFFF0
3FFFF0
1FFDF8
0FF9F8
03C000
ENDCHAR

STARTCHAR b
ENCODING 98
SWIDTH 501 0
DWIDTH 25 0
BBX 23 37 1 -1
BITMAP
7E0000
7E0000
7E0000
7E0000
7E0000
7E0000
7E0000
7E0000
7E0000
7E3F00
7E7FC0
7EFFE0
7FFFE0
7FFFF0
7FC7F0
7F83F8
7F01F8
7F01F8
7E00FC
7E00FC
7E00FC
7E00FC
7E00FC
7E00FC
7E00FC
7E00FC
7E00FC
7E00F8
7F01F8
7F01F8
7F83F8
7FE7F0
7FFFF0
7DFFE0
7CFFC0
7C7F80
003F00
ENDCHAR

STARTCHAR c
ENCODING 99
SWIDTH 456 0
DWIDTH 23 0
BBX 23 28 1 -1
BITMAP
00FE00
03FF80
07FFC0
0FFFE0
1FFFF0
1FC7F0
3F83F0
3F01F8
3F01F0
3E0100
7E0000
7E0000
7E0000
7E0000
7E0000
7E0000
7E0000
7E00C0
3F01F8
3F01F8
3F81F8
3FC3F0
1FFFF0
0FFFE0
0FFFE0
07FFC0
01FF00
007C00
ENDCHAR

STARTCHAR d
ENCODING 100
SWIDTH 501 0
DWIDTH 25 0
BBX 23 37 1 -1
BITMAP
0000FC
0000FC
0000FC
0000FC
0000FC
0000FC
0000FC
0000FC
0000FC
01F8FC
03FCFC
07FEFC
0FFFFC
1FFFFC
1FC7FC
3F83FC
3F01FC
3F01FC
3E00FC
7E00FC
7E00FC
7E00FC
7E00FC
7E00FC
7E00FC
7E00FC
7E00FC
3E00FC
3F01FC
3F01FC
3F83FC
1FE7FC
1FFFFC
0FFF7C
07FE7C
03FC7C
01F800
ENDCHAR

STARTCHAR e
ENCODING 101
SWIDTH 456 0
DWIDTH 23 0
BBX 22 28 0 -1
BITMAP
00FC00
03FF00
07FF80
0FFFC0
1FFFE0
1FCFE0
3F83F0
3F03F0
3E01F0
3E01F0
7E01F8
7E01F8
7FFFF8
7FFFF8
7FFFF8
7FFFF8
7E0000
7E0000
3E0000
3E0180
3F03F0
3F83F0
1FC7F0
1FFFE0
0FFFE0
07FFC0
03FF80
00FE00
ENDCHAR

STARTCHAR f
ENCODING 102
SWIDTH 273 0
DWIDTH 14 0
BBX 17 37 -1 0
BITMAP
00FE00
03FE00
07FE00
07FE00
07FE00
0FE200
0FC000
0FC000
0FC000
0FC000
0FC000
7FFC00
7FFC00
7FFC00
7FFC00
7FFC00
0FC000
0FC000
0FC000
0FC000
0FC000
0FC000
0FC000
0FC000
0FC000
0FC000
0FC000
0FC000
0FC000
0FC000
0FC000
0FC000
0FC000
0FC000
0FC000
0FC000
0FC000
ENDCHAR

STARTCHAR g
ENCODING 103
SWIDTH 501 0
DWIDTH 25 0
BBX 24 38 0 -11
BITMAP
00FC00
03FE7E
07FF7E
07FFFE
0FFFFE
1FE3FE
1FC1FE
1F80FE
1F80FE
3F007E
3F007E
3F007E
3F007E
3F007E
3F007E
3F007E
3F007E
3F007E
3F80FE
1F80FE
1FC1FE
1FE3FE
0FFFFE
07FFFE
07FF7E
03FE7E
00F87E
00007E
00007E
1C007C
1F807C
1FC0FC
1FE3FC
1FFFF8
0FFFF8
07FFF0
03FFE0
00FF80
ENDCHAR

STARTCHAR h
ENCODING 104
SWIDTH 501 0
DWIDTH 25 0
BBX 22 36 1 0
BITMAP
7E0000
7E0000
7E0000
7E0000
7E0000
7E0000
7E0000
7E0000
7E0000
7E1F00
7E7FC0
7EFFE0
7FFFF0
7FFFF0
7FC7F0
7F83F8
7F01F8
7E01F8
7E01F8
7E01F8
7E01F8
7E01F8
7E01F8
7E01F8
7E01F8
7E01F8
7E01F8
7E01F8
7E01F8
7E01F8
7E01F8
7E01F8
7E01F8
7E01F8
7E01F8
7E01F8
ENDCHAR

STARTCHAR i
ENCODING 105
SWIDTH 228 0
DWIDTH 11 0
BBX 8 36 2 0
BITMAP
7E
7E
7E
7E
7E
7E
00
00
00
00
7E
7E
7E
7E
7E
7E
7E
7E
7E
7E
7E
7E
7E
7E
7E
7E
7E
7E
7E
7E
7E
7E
7E
7E
7E
7E
ENDCHAR

STARTCHAR j
ENCODING 106
SWIDTH 228 0
DWIDTH 11 0
BBX 13 46 -3 -10
BITMAP
03F0
03F0
03F0
03F0
03F0
03F0
0000
0000
0000
0000
03F0
03F0
03F0
03F0
03F0
03F0
03F0
03F0
03F0
03F0
03F0
03F0
03F0
03F0
03F0
03F0
03F0
03F0
03F0
03F0
03F0
03F0
03F0
03F0
03F0
03F0
03F0
03F0
03F0
07F0
3FF0
3FE0
3FE0
3FE0
3FC0
3F80
ENDCHAR

STARTCHAR k
ENCODING 107
SWIDTH 456 0
DWIDTH 23 0
BBX 22 36 2 0
BITMAP
7E0000
7E0000
7E0000
7E0000
7E0000
7E0000
7E0000
7E0000
7E0000
7E0000
7E07F0
7E0FE0
7E0FC0
7E1FC0
7E3F80
7E7F00
7E7E00
7EFE00
7FFC00
7FF800
7FFC00
7FFC00
7FFC00
7FFE00
7FBE00
7FBF00
7F3F00
7E1F80
7E1F80
7E0FC0
7E0FC0
7E07E0
7E07E0
7E03F0
7E03F0
7E01F8
ENDCHAR

STARTCHAR l
ENCODING 108
SWIDTH 228 0
DWIDTH 11 0
BBX 8 36 2 0
BITMAP
7E
7E
7E
7E
7E
7E
7E
7E
7E
7E
7E
7E
7E
7E
7E
7E
7E
7E
7E
7E
7E
7E
7E
7E
7E
7E
7E
7E
7E
7E
7E
7E
7E
7E
7E
7E
ENDCHAR

STARTCHAR m
ENCODING 109
SWIDTH 729 0
DWIDTH 36 0
BBX 34 27 1 0
BITMAP
003F01F800
7C7FC7FE00
7CFFCFFE00
7DFFEFFF00
7FFFFFFF00
7F87FC7F00
7F03F83F80
7F03F81F80
7E03F01F80
7E03F01F80
7E03F01F80
7E03F01F80
7E03F01F80
7E03F01F80
7E03F01F80
7E03F01F80
7E03F01F80
7E03F01F80
7E03F01F80
7E03F01F80
7E03F01F80
7E03F01F80
7E03F01F80
7E03F01F80
7E03F01F80
7E03F01F80
7E03F01F80
ENDCHAR

STARTCHAR n
ENCODING 110
SWIDTH 501 0
DWIDTH 25 0
BBX 22 27 1 0
BITMAP
001F80
7E7FC0
7EFFE0
7FFFF0
7FFFF0
7FC7F8
7F83F8
7F01F8
7E01F8
7E01F8
7E01F8
7E01F8
7E01F8
7E01F8
7E01F8
7E01F8
7E01F8
7E01F8
7E01F8
7E01F8
7E01F8
7E01F8
7E01F8
7E01F8
7E01F8
7E01F8
7E01F8
ENDCHAR

STARTCHAR o
ENCODING 111
SWIDTH 501 0
DWIDTH 25 0
BBX 24 28 1 -1
BITMAP
003E00
01FF80
03FFC0
07FFE0
0FFFF0
1FFFF8
1FC3F8
3F81FC
3F00FC
3F00FC
7E007E
7E007E
7E007E
7E007E
7E007E
7E007E
7E007E
3E007E
3F00FC
3F00FC
3F81FC
1FC3F8
1FFFF8
0FFFF0
07FFE0
03FFC0
01FF80
003E00
ENDCHAR

STARTCHAR p
ENCODING 112
SWIDTH 501 0
DWIDTH 25 0
BBX 23 37 2 -10
BITMAP
003F00
7C7FC0
7CFFE0
7DFFE0
7FFFF0
7FE7F0
7F83F8
7F01F8
7F01F8
7E00FC
7E00FC
7E00FC
7E00FC
7E00FC
7E00FC
7E00FC
7E00FC
7E00FC
7E00FC
7F01F8
7F01F8
7F83F8
7FE7F0
7FFFF0
7FFFE0
7EFFC0
7E7F80
7E3F00
7E0000
7E0000
7E0000
7E0000
7E0000
7E0000
7E0000
7E0000
7E0000
ENDCHAR

STARTCHAR q
ENCODING 113
SWIDTH 501 0
DWIDTH 25 0
BBX 23 37 1 -10
BITMAP
01F800
03FE7C
07FF7C
0FFF7C
1FFFFC
1FE7FC
3F83FC
3F01FC
3F00FC
3E00FC
7E00FC
7E00FC
7E00FC
7E00FC
7E00FC
7E00FC
7E00FC
7E00FC
3E00FC
3F01FC
3F01FC
3F83FC
1FE7FC
1FFFFC
0FFFFC
07FEFC
03FCFC
01F8FC
0000FC
0000FC
0000FC
0000FC
0000FC
0000FC
0000FC
0000FC
0000FC
ENDCHAR

STARTCHAR r
ENCODING 114
SWIDTH 319 0
DWIDTH 16 0
BBX 16 27 2 0
BITMAP
007C
7CFE
7DFE
7DFC
7FFC
7FFC
7F88
7F00
7F00
7E00
7E00
7E00
7E00
7E00
7E00
7E00
7E00
7E00
7E00
7E00
7E00
7E00
7E00
7E00
7E00
7E00
7E00
ENDCHAR

STARTCHAR s
ENCODING 115
SWIDTH 456 0
DWIDTH 23 0
BBX 22 28 0 -1
BITMAP
01FE00
07FF80
0FFFC0
1FFFE0
1FFFE0
3F07F0
3E03F0
3E0180
3F0000
3FC000
3FF800
1FFF00
1FFFC0
0FFFE0
07FFF0
03FFF0
007FF8
000FF8
0003F8
0E01F8
7E01F8
3F01F8
3F83F0
3FFFF0
1FFFE0
0FFFC0
07FF80
00FE00
ENDCHAR

STARTCHAR t
ENCODING 116
SWIDTH 273 0
DWIDTH 14 0
BBX 16 36 -1 -1
BITMAP
0040
00C0
03C0
07C0
0FC0
0FC0
0FC0
0FC0
0FC0
3FFC
3FFC
3FFC
3FFC
3FFC
0FC0
0FC0
0FC0
0FC0
0FC0
0FC0
0FC0
0FC0
0FC0
0FC0
0FC0
0FC0
0FC0
0FC0
0FC0
0FC0
0FFC
0FFC
07FC
07FC
03FC
00F0
ENDCHAR

STARTCHAR u
ENCODING 117
SWIDTH 501 0
DWIDTH 25 0
BBX 22 27 1 -1
BITMAP
7E01F8
7E01F8
7E01F8
7E01F8
7E01F8
7E01F8
7E01F8
7E01F8
7E01F8
7E01F8
7E01F8
7E01F8
7E01F8
7E01F8
7E01F8
7E01F8
7E01F8
7E01F8
7E01F8
7E03F8
7F07F8
3F8FF8
3FFFF8
3FFEF8
1FFCF8
0FF8F8
07E000
ENDCHAR

STARTCHAR v
ENCODING 118
SWIDTH 456 0
DWIDTH 23 0
BBX 25 26 -1 0
BITMAP
7E003E00
3F007E00
3F007E00
3F007C00
1F80FC00
1F80FC00
1F80F800
0F81F800
0FC1F800
0FC1F000
07C3F000
07E3F000
07E3E000
03E3E000
03F7E000
03F7C000
01F7C000
01FFC000
01FF8000
00FF8000
00FF8000
00FF0000
007F0000
007F0000
007E0000
003E0000
ENDCHAR

STARTCHAR w
ENCODING 119
SWIDTH 638 0
DWIDTH 32 0
BBX 34 26 -1 0
BITMAP
7E03F01F80
3E03F01F00
3E03F01F00
3E07F03F00
3F07F83F00
1F07F83E00
1F07F83E00
1F07F83E00
1F8FF87E00
0F8FFC7C00
0F8FFC7C00
0F8F7C7C00
0FCF3CFC00
07DF3EF800
07DF3EF800
07DF3EF800
07DE3FF000
03FE1FF000
03FE1FF000
03FE1FF000
03FC1FE000
01FC0FE000
01FC0FE000
01FC0FE000
00FC0FC000
00F80FC000
ENDCHAR

STARTCHAR x
ENCODING 120
SWIDTH 456 0
DWIDTH 23 0
BBX 25 26 -1 0
BITMAP
3F80FE00
1F81FC00
1FC1F800
0FC3F800
0FE3F000
07F7F000
07F7E000
03FFC000
01FFC000
01FF8000
00FF8000
00FF0000
007F0000
007F0000
00FF8000
01FFC000
01FFC000
03FFE000
03F7E000
07E7F000
07E3F000
0FC3F800
1FC1FC00
1F81FC00
3F80FE00
3F00FE00
ENDCHAR

STARTCHAR y
ENCODING 121
SWIDTH 456 0
DWIDTH 23 0
BBX 25 36 -1 -10
BITMAP
3F007E00
3F007E00
3F007E00
3F007C00
1F80FC00
1F80FC00
1F80F800
0F81F800
0FC1F800
0FC1F000
07C1F000
07E3F000
07E3E000
03E3E000
03E3E000
03F7E000
01F7C000
01F7C000
01FFC000
00FF8000
00FF8000
00FF8000
00FF0000
007F0000
007F0000
007F0000
007E0000
007E0000
007E0000
00FC0000
01FC0000
1FFC0000
1FF80000
1FF80000
1FF00000
1FC00000
ENDCHAR

STARTCHAR z
ENCODING 122
SWIDTH 410 0
DWIDTH 20 0
BBX 22 26 -1 0
BITMAP
1FFFF0
1FFFF0
1FFFF0
1FFFF0
1FFFF0
1FFFF0
000FE0
001FC0
003FC0
003F80
007F00
00FE00
00FE00
01FC00
03F800
07F800
07F000
0FE000
1FC000
1FC000
3FFFF8
3FFFF8
3FFFF8
3FFFF8
3FFFF8
3FFFF8
ENDCHAR

STARTCHAR braceleft
ENCODING 123
SWIDTH 319 0
DWIDTH 16 0
BBX 17 47 0 -10
BITMAP
003E00
00FE00
01FE00
01FE00
03FE00
03FE00
03F000
03E000
03E000
03E000
03E000
03E000
03E000
03E000
03E000
03E000
03E000
07E000
07E000
0FC000
3FC000
3F8000
3F0000
3E0000
3F8000
3F8000
3FC000
0FC000
07E000
07E000
03E000
03E000
03E000
03E000
03E000
03E000
03E000
03E000
03E000
03E000
03F000
03FE00
03FE00
01FE00
01FE00
00FE00
003E00
ENDCHAR

STARTCHAR bar
ENCODING 124
SWIDTH 230 0
DWIDTH 11 0
BBX 7 46 2 -10
BITMAP
7C
7C
7C
7C
7C
7C
7C
7C
7C
7C
7C
7C
7C
7C
7C
7C
7C
7C
7C
7C
7C
7C
7C
7C
7C
7C
7C
7C
7C
7C
7C
7C
7C
7C
7C
7C
7C
7C
7C
7C
7C
7C
7C
7C
7C
7C
ENDCHAR

STARTCHAR braceright
ENCODING 125
SWIDTH 319 0
DWIDTH 16 0
BBX 17 47 -1 -10
BITMAP
3E0000
3F8000
3FC000
3FC000
3FE000
3FE000
07E000
03E000
03E000
03E000
03E000
03E000
03E000
03E000
03E000
03E000
03E000
03F000
03F000
01F800
01FE00
00FF00
007F00
003F00
007F00
00FF00
01FE00
01F800
01F000
03F000
03E000
03E000
03E000
03E000
03E000
03E000
03E000
03E000
03E000
03E000
07E000
3FE000
3FE000
3FC000
3FC000
3F8000
3E0000
ENDCHAR

STARTCHAR asciitilde
ENCODING 126
SWIDTH 479 0
DWIDTH 24 0
BBX 24 9 0 13
BITMAP
0FE002
1FF806
3FFE1E
7FFFFE
7FFFFE
7FFFFE
787FFC
600FF8
4003E0
ENDCHAR

STARTCHAR space
ENCODING 160
SWIDTH 228 0
DWIDTH 14 0
BBX 0 0 0 0
BITMAP
ENDCHAR

STARTCHAR exclamdown
ENCODING 161
SWIDTH 273 0
DWIDTH 14 0
BBX 10 36 2 -10
BITMAP
3F00
3F00
3F00
3F00
3F00
3F00
3F00
0000
0000
1E00
1E00
1E00
1E00
1E00
1E00
1E00
1E00
1E00
1E00
1E00
1F00
3F00
3F00
3F00
3F00
3F00
3F00
3F00
3F00
3F00
3F00
3F00
3F00
3F00
3F00
3F00
ENDCHAR

STARTCHAR cent
ENCODING 162
SWIDTH 456 0
DWIDTH 23 0
BBX 23 45 1 -10
BITMAP
000180
0001C0
0001C0
000180
000380
000380
000300
000300
007F00
03FF80
07FFC0
0FFFE0
1FFFF0
1FCFF0
3F8FF0
3F0DF8
3F1DF0
3E1C00
7E1800
7E1800
7E3800
7E3800
7E3000
7E3000
7E7000
7E70C0
3F61F8
3F61F8
3FE3F8
3FE7F0
1FFFF0
1FFFE0
0FFFE0
07FFC0
03FF00
01FC00
038000
038000
038000
030000
070000
070000
070000
060000
020000
ENDCHAR

STARTCHAR sterling
ENCODING 163
SWIDTH 456 0
DWIDTH 23 0
BBX 26 38 -2 -1
BITMAP
003F8000
00FFE000
01FFF000
03FFF800
03FFF800
07FFFC00
07E0FC00
07E0FC00
0FC07E00
0FC07E00
0FC07000
0FC00000
0FC00000
07C00000
07C00000
07C00000
07E00000
3FFF8000
3FFF8000
3FFF8000
3FFF8000
3FFF8000
03F00000
03F00000
03F00000
03F00000
03E00000
03E00000
07E00000
07C00000
0F800000
1FFE0E00
3FFFFE00
3FFFFE00
1FFFFF00
1FFFFF00
1E0FFF00
0801FC00
ENDCHAR

STARTCHAR currency
ENCODING 164
SWIDTH 456 0
DWIDTH 23 0
BBX 24 24 -1 6
BITMAP
0C0030
1E7E78
3FFFFC
3FFFFC
3FFFF8
1FFFF8
0FFFF0
0FC3F0
0F81F8
1F80F8
1F00F8
1F00F8
1F00F8
1F00F8
1F80F8
0F81F0
0FC3F0
0FFFF0
1FFFF8
1FFFF8
3FFFFC
3FFFFC
1E7E78
0C0030
ENDCHAR

STARTCHAR yen
ENCODING 165
SWIDTH 456 0
DWIDTH 23 0
BBX 26 36 -2 0
BITMAP
3F003F00
3F803F00
1F807E00
1F807E00
0FC0FC00
0FC0FC00
0FC0FC00
07E1F800
07E1F800
03F3F000
03F3F000
03F3F000
01FFE000
01FFE000
00FFC000
00FFC000
1FFFFE00
1FFFFE00
1FFFFE00
1FFFFE00
1FFFFE00
003F0000
003F0000
003F0000
1FFFFE00
1FFFFE00
1FFFFE00
1FFFFE00
1FFFFE00
003F0000
003F0000
003F0000
003F0000
003F0000
003F0000
003F0000
ENDCHAR

STARTCHAR brokenbar
ENCODING 166
SWIDTH 230 0
DWIDTH 11 0
BBX 7 47 2 -11
BITMAP
7C
7C
7C
7C
7C
7C
7C
7C
7C
7C
7C
7C
7C
7C
7C
7C
7C
7C
7C
00
00
00
00
00
00
00
00
00
7C
7C
7C
7C
7C
7C
7C
7C
7C
7C
7C
7C
7C
7C
7C
7C
7C
7C
7C
ENDCHAR

STARTCHAR section
ENCODING 167
SWIDTH 456 0
DWIDTH 23 0
BBX 23 47 0 -10
BITMAP
00FE00
03FF80
07FFC0
0FFFE0
0FFFE0
1FC7F0
1F83F0
1F81F0
1F81C0
0FC000
0FE000
07F000
07F800
07FC00
0FFF00
0FFF80
1FFFC0
1F3FE0
3E1FF0
3E0FF8
3E07F8
3E03FC
3F01FC
3F80FC
3FC07C
1FE07C
1FF07C
0FF87C
07FCF8
03FFF8
01FFF0
00FFE0
007FC0
001FE0
000FF0
0007F0
0003F8
0081F8
1F81F8
1F81F8
0FC1F8
0FE3F0
0FFFF0
07FFF0
03FFE0
01FFC0
007F00
ENDCHAR

STARTCHAR dieresis
ENCODING 168
SWIDTH 273 0
DWIDTH 14 0
BBX 16 6 -1 31
BITMAP
7C3E
7C3E
7C3E
7C3E
7C3E
7C3E
ENDCHAR

STARTCHAR copyright
ENCODING 169
SWIDTH 604 0
DWIDTH 30 0
BBX 34 37 -2 0
BITMAP
0003F00000
001FFE0000
007FFF0000
00FFFFC000
01F807E000
03E001F000
078000F000
0F00007800
0F01E03C00
1E07F81C00
1C0FFC1E00
3C1FFE0E00
383E1E0E00
383C0F0F00
78380C0700
7078000700
7078000700
7078000700
7078000700
7078000700
7078000700
7078080700
78380F0700
383C0E0E00
383E1E0E00
3C1FFE0E00
1C0FFC1E00
1E07F81C00
0F01C03C00
0F80007800
07C000F000
03E003F000
01F80FE000
00FFFFC000
007FFF0000
001FFE0000
0003F00000
ENDCHAR

STARTCHAR ordfeminine
ENCODING 170
SWIDTH 303 0
DWIDTH 15 0
BBX 17 19 -1 18
BITMAP
03F000
0FFC00
0FFC00
1FFE00
1E3E00
0E1E00
001E00
00FE00
07FE00
0FFE00
1FDE00
3E1E00
3C1E00
3C3E00
3E3E00
3FFE00
1FFE00
1FCE00
078000
ENDCHAR

STARTCHAR guillemotleft
ENCODING 171
SWIDTH 456 0
DWIDTH 23 0
BBX 21 22 1 2
BITMAP
01F1E0
01E3E0
03E3C0
07C7C0
07C780
0F8F80
0F9F80
1F1F00
3F3F00
3E3E00
7E7E00
7E7E00
3E3E00
1F3F00
1F1F00
0F8F80
0F8F80
07C7C0
07C7C0
03E3C0
01E3E0
01F1E0
ENDCHAR

STARTCHAR logicalnot
ENCODING 172
SWIDTH 479 0
DWIDTH 24 0
BBX 24 17 0 10
BITMAP
3FFFFC
3FFFFC
3FFFFC
3FFFFC
3FFFFC
3FFFFC
00007C
00007C
00007C
00007C
00007C
00007C
00007C
00007C
00007C
00007C
00007C
ENDCHAR

STARTCHAR hyphen
ENCODING 173
SWIDTH 273 0
DWIDTH 14 0
BBX 14 7 0 9
BITMAP
7FF0
7FF0
7FF0
7FF0
7FF0
7FF0
7FF0
ENDCHAR

STARTCHAR registered
ENCODING 174
SWIDTH 604 0
DWIDTH 30 0
BBX 34 38 -1 -1
BITMAP
0003E00000
001FFC0000
007FFF0000
00FFFF8000
01F807E000
03E003E000
07C000F000
0F80007800
0F00003800
1E3FF03C00
1C3FF81C00
3C3FFC1E00
38383E0E00
38381E0E00
78381E0F00
78381E0700
70381E0700
70383C0700
703FFC0700
703FF80700
703FE00700
7038F00700
7038700700
7838780700
38383C0E00
38383C0E00
3C381E0E00
1C381E1C00
1E381F3C00
0F00003800
0F80007800
07C000F000
03E003E000
01F80FC000
00FFFF8000
007FFF0000
001FFC0000
0003E00000
ENDCHAR

STARTCHAR macron
ENCODING 175
SWIDTH 273 0
DWIDTH 14 0
BBX 16 5 -1 30
BITMAP
7FFC
7FFC
7FFC
7FFC
7FFC
ENDCHAR

STARTCHAR degree
ENCODING 176
SWIDTH 328 0
DWIDTH 16 0
BBX 16 16 0 21
BITMAP
03C0
07F0
0FF8
1FF8
1E7C
3C3C
381C
381C
381C
381C
3C3C
1E7C
1FF8
0FF8
0FF0
03C0
ENDCHAR

STARTCHAR plusminus
ENCODING 177
SWIDTH 479 0
DWIDTH 24 0
BBX 23 34 0 0
BITMAP
007C00
007C00
007C00
007C00
007C00
007C00
007C00
007C00
007C00
007C00
7FFFFC
7FFFFC
7FFFFC
7FFFFC
7FFFFC
7FFFFC
007C00
007C00
007C00
007C00
007C00
007C00
007C00
007C00
007C00
000000
000000
000000
7FFFFC
7FFFFC
7FFFFC
7FFFFC
7FFFFC
7FFFFC
ENDCHAR

STARTCHAR twosuperior
ENCODING 178
SWIDTH 273 0
DWIDTH 14 0
BBX 15 19 -1 18
BITMAP
03C0
0FF0
1FF8
1FFC
1E3C
3C3C
043C
003C
0078
00F8
01F0
03E0
07C0
0F80
1F00
1FFC
3FFC
3FFC
3FFC
ENDCHAR

STARTCHAR threesuperior
ENCODING 179
SWIDTH 273 0
DWIDTH 14 0
BBX 15 19 -1 18
BITMAP
0380
0FE0
1FF0
1FF8
3C78
3C78
0078
03F0
03E0
03F0
0278
003C
003C
3C3C
3C3C
1FF8
1FF8
0FF0
03C0
ENDCHAR

STARTCHAR acute
ENCODING 180
SWIDTH 273 0
DWIDTH 14 0
BBX 12 7 2 29
BITMAP
0FC0
0F80
1F80
1F00
1E00
3C00
3C00
ENDCHAR

STARTCHAR mu
ENCODING 181
SWIDTH 501 0
DWIDTH 25 0
BBX 22 36 2 -10
BITMAP
7E01F8
7E01F8
7E01F8
7E01F8
7E01F8
7E01F8
7E01F8
7E01F8
7E01F8
7E01F8
7E01F8
7E01F8
7E01F8
7E01F8
7E01F8
7E01F8
7E01F8
7E01F8
7F01F8
7F03F8
7F87F8
7FCFF8
7FFFF8
7FFEF8
7FFEF8
7EFCF8
7E7800
7E0000
7E0000
7E0000
7E0000
7E0000
7E0000
7E0000
7E0000
7E0000
ENDCHAR

STARTCHAR paragraph
ENCODING 182
SWIDTH 456 0
DWIDTH 23 0
BBX 28 45 -3 -9
BITMAP
00FFFFC0
01FFFFC0
03FFFFC0
07FFFFC0
0FFFFFC0
0FFFFFC0
0FFF1F00
1FFF1F00
1FFF1F00
1FFF1F00
1FFF1F00
1FFF1F00
1FFF1F00
0FFF1F00
0FFF1F00
07FF1F00
07FF1F00
03FF1F00
01FF1F00
003F1F00
001F1F00
001F1F00
001F1F00
001F1F00
001F1F00
001F1F00
001F1F00
001F1F00
001F1F00
001F1F00
001F1F00
001F1F00
001F1F00
001F1F00
001F1F00
001F1F00
001F1F00
001F1F00
001F1F00
001F1F00
001F1F00
001F1F00
001F1F00
001F1F00
001F1F00
ENDCHAR

STARTCHAR periodcentered
ENCODING 183
SWIDTH 228 0
DWIDTH 11 0
BBX 8 7 2 14
BITMAP
7E
7E
7E
7E
7E
7E
7E
ENDCHAR

STARTCHAR cedilla
ENCODING 184
SWIDTH 273 0
DWIDTH 14 0
BBX 13 10 0 -10
BITMAP
0780
1FE0
1FE0
00F0
00F0
00F0
01F0
7FE0
7FC0
7F00
ENDCHAR

STARTCHAR onesuperior
ENCODING 185
SWIDTH 273 0
DWIDTH 14 0
BBX 11 19 0 18
BITMAP
01C0
03C0
07C0
0FC0
3FC0
3FC0
3FC0
33C0
03C0
03C0
03C0
03C0
03C0
03C0
03C0
03C0
03C0
03C0
03C0
ENDCHAR

STARTCHAR ordmasculine
ENCODING 186
SWIDTH 299 0
DWIDTH 15 0
BBX 18 18 -2 19
BITMAP
03F000
07FC00
0FFC00
1FFE00
1F3F00
3E1F00
3C1F00
3C0F00
3C0F00
3C0F00
3C0F00
3E0F00
3E1F00
1F3E00
1FFE00
0FFC00
07F800
03F000
ENDCHAR

STARTCHAR guillemotright
ENCODING 187
SWIDTH 456 0
DWIDTH 23 0
BBX 21 22 1 2
BITMAP
7C7C00
3E3C00
3E3E00
1F1F00
1F1F00
0F8F80
0F8F80
07C7C0
07C7C0
03E3E0
03F3F0
03F3F0
03E3E0
07E7C0
07C7C0
0F8F80
0F8F80
1F1F00
1F1F00
3E3E00
3E3C00
7C7C00
ENDCHAR

STARTCHAR onequarter
ENCODING 188
SWIDTH 684 0
DWIDTH 34 0
BBX 35 37 0 0
BITMAP
01C000E000
03C000E000
07C001C000
0FC001C000
3FC0038000
3FC0038000
3FC0070000
33C0070000
03C00F0000
03C00E0000
03C01E0000
03C01C0000
03C03C0000
03C0380000
03C0380000
03C0700000
03C0700000
03C0E00000
03C0E00000
0001C00F00
0001C00F00
0003801F00
0003803F00
0007003F00
0007007F00
000F00FF00
000E00EF00
001E01CF00
001C03CF00
003C038F00
003807FFC0
003807FFC0
007007FFC0
007007FFC0
00E0000F00
00E0000F00
01C0000F00
ENDCHAR

STARTCHAR onehalf
ENCODING 189
SWIDTH 684 0
DWIDTH 34 0
BBX 34 37 0 0
BITMAP
01C000E000
03C001E000
07C001C000
0FC003C000
3FC0038000
3FC0038000
3BC0070000
23C0070000
03C00E0000
03C00E0000
03C01C0000
03C01C0000
03C0380000
03C0380000
03C0700000
03C0700000
03C0F00000
03C0E00000
0000E07800
0001C1FE00
0001C3FF00
000383FF80
000383C780
0007078780
0007008780
000E000780
000E000F00
001C001F00
001C003E00
003C007C00
003800F800
007801F000
007003E000
007003FF80
00E007FF80
00E007FF80
01C007FF80
ENDCHAR

STARTCHAR threequarters
ENCODING 190
SWIDTH 684 0
DWIDTH 34 0
BBX 36 37 -1 0
BITMAP
0380003800
0FE0007000
1FF0007000
1FF800E000
3C7800E000
3C7801E000
007801C000
03F003C000
03E0038000
03F0038000
0278070000
003C070000
003C0E0000
3C3C0E0000
3C3C1C0000
1FF81C0000
1FF8380000
0FF0380000
03C0700000
0000700780
0000F00780
0000E00F80
0001E01F80
0001C01F80
0003C03F80
0003807F80
0003807780
000700E780
000701E780
000E01C780
000E03FFE0
001C03FFE0
001C03FFE0
003803FFE0
0038000780
0070000780
0070000780
ENDCHAR

STARTCHAR questiondown
ENCODING 191
SWIDTH 501 0
DWIDTH 25 0
BBX 24 36 1 -10
BITMAP
007E00
007E00
007E00
007E00
007E00
007E00
007E00
000000
000000
003E00
003E00
003E00
007E00
007E00
00FC00
01FC00
03FC00
07F800
0FF000
0FE000
1FC000
3F8000
3F0000
3F0000
7E0000
7E007C
7E007E
7E007C
3F00FC
3F01FC
3FC3F8
1FFFF8
0FFFF0
07FFE0
03FFC0
00FF00
ENDCHAR

STARTCHAR Agrave
ENCODING 192
SWIDTH 592 0
DWIDTH 30 0
BBX 32 46 -1 0
BITMAP
003F0000
001F8000
000F8000
0007C000
0007C000
0003C000
0001E000
00000000
00000000
00000000
000FE000
000FE000
000FF000
001FF000
001FF000
001FF800
003FF800
003FF800
003FFC00
003EFC00
007EFC00
007E7E00
007C7E00
00FC7E00
00FC7F00
00FC3F00
01F83F00
01F83F80
01F81F80
03F01F80
03F01FC0
03F00FC0
07FFFFC0
07FFFFE0
07FFFFE0
0FFFFFE0
0FFFFFF0
0FFFFFF0
0FC003F0
1F8003F0
1F8003F8
1F8001F8
3F0001F8
3F0001FC
3F0000FC
7F0000FC
ENDCHAR

STARTCHAR Aacute
ENCODING 193
SWIDTH 592 0
DWIDTH 30 0
BBX 32 46 -1 0
BITMAP
0001F800
0001F800
0001F000
0003E000
0003C000
0007C000
00078000
00000000
00000000
00000000
000FE000
000FE000
000FF000
001FF000
001FF000
001FF800
003FF800
003FF800
003FFC00
003EFC00
007EFC00
007E7E00
007C7E00
00FC7E00
00FC7F00
00FC3F00
01F83F00
01F83F80
01F81F80
03F01F80
03F01FC0
03F00FC0
07FFFFC0
07FFFFE0
07FFFFE0
0FFFFFE0
0FFFFFF0
0FFFFFF0
0FC003F0
1F8003F0
1F8003F8
1F8001F8
3F0001F8
3F0001FC
3F0000FC
7F0000FC
ENDCHAR

STARTCHAR Acircumflex
ENCODING 194
SWIDTH 592 0
DWIDTH 30 0
BBX 32 46 -1 0
BITMAP
0007E000
000FE000
000FF000
001FF800
001EF800
003E7C00
003C3C00
00000000
00000000
00000000
000FE000
000FE000
000FF000
001FF000
001FF000
001FF800
003FF800
003FF800
003FFC00
003EFC00
007EFC00
007E7E00
007C7E00
00FC7E00
00FC7F00
00FC3F00
01F83F00
01F83F80
01F81F80
03F01F80
03F01FC0
03F00FC0
07FFFFC0
07FFFFE0
07FFFFE0
0FFFFFE0
0FFFFFF0
0FFFFFF0
0FC003F0
1F8003F0
1F8003F8
1F8001F8
3F0001F8
3F0001FC
3F0000FC
7F0000FC
ENDCHAR

STARTCHAR Atilde
ENCODING 195
SWIDTH 592 0
DWIDTH 30 0
BBX 32 45 -1 0
BITMAP
001E0E00
003F9E00
007FFC00
007FFC00
0071FC00
00607800
00000000
00000000
00000000
000FE000
000FE000
000FF000
001FF000
001FF000
001FF800
003FF800
003FF800
003FFC00
003EFC00
007EFC00
007E7E00
007C7E00
00FC7E00
00FC7F00
00FC3F00
01F83F00
01F83F80
01F81F80
03F01F80
03F01FC0
03F00FC0
07FFFFC0
07FFFFE0
07FFFFE0
0FFFFFE0
0FFFFFF0
0FFFFFF0
0FC003F0
1F8003F0
1F8003F8
1F8001F8
3F0001F8
3F0001FC
3F0000FC
7F0000FC
ENDCHAR

STARTCHAR Adieresis
ENCODING 196
SWIDTH 592 0
DWIDTH 30 0
BBX 32 46 -1 0
BITMAP
007C3E00
007C3E00
007C3E00
007C3E00
007C3E00
007C3E00
00000000
00000000
00000000
00000000
000FE000
000FF000
000FF000
001FF000
001FF800
001FF800
003FF800
003FFC00
003FFC00
003EFC00
007EFE00
007E7E00
007E7E00
00FC7F00
00FC3F00
00FC3F00
01F83F80
01F81F80
01F81F80
03F01FC0
03F00FC0
03F00FC0
07FFFFE0
07FFFFE0
07FFFFE0
0FFFFFF0
0FFFFFF0
0FFFFFF0
1FC003F8
1F8003F8
1F8001F8
1F8001FC
3F0001FC
3F0000FC
3F0000FC
7F0000FE
ENDCHAR

STARTCHAR Aring
ENCODING 197
SWIDTH 592 0
DWIDTH 30 0
BBX 32 47 -1 0
BITMAP
0001C000
0007E000
0007F000
000E7000
000C3000
000C3000
000E7000
0007E000
0007E000
00018000
00000000
000FE000
000FF000
000FF000
001FF000
001FF800
001FF800
001FF800
003FFC00
003FFC00
003EFC00
007EFE00
007E7E00
007E7E00
00FC7F00
00FC3F00
00FC3F00
01F83F80
01F81F80
01F81F80
03F01FC0
03F00FC0
03F00FC0
07FFFFE0
07FFFFE0
07FFFFE0
0FFFFFE0
0FFFFFF0
0FFFFFF0
0FC003F0
1F8003F8
1F8001F8
1F8001F8
3F0001FC
3F0000FC
3F0000FC
7F0000FE
ENDCHAR

STARTCHAR AE
ENCODING 198
SWIDTH 820 0
DWIDTH 41 0
BBX 44 36 -3 0
BITMAP
0001FFFFFFC0
0003FFFFFFC0
0003FFFFFFC0
0003FFFFFFC0
0007FFFFFFC0
0007E7FFFFC0
0007C7E00000
000FC7E00000
000FC7E00000
001F87E00000
001F87E00000
001F87E00000
003F07E00000
003F07E00000
003E07FFFF00
007E07FFFF00
007E07FFFF00
00FC07FFFF00
00FC07FFFF00
00FC07FFFF00
01F807E00000
01FFFFE00000
03FFFFE00000
03FFFFE00000
03FFFFE00000
07FFFFE00000
07FFFFE00000
07E007E00000
0FC007E00000
0FC007E00000
1FC007FFFFC0
1F8007FFFFC0
1F8007FFFFC0
3F8007FFFFC0
3F0007FFFFC0
3F0007FFFFC0
ENDCHAR

STARTCHAR Ccedilla
ENCODING 199
SWIDTH 592 0
DWIDTH 30 0
BBX 29 48 0 -11
BITMAP
001FE000
007FF800
00FFFE00
01FFFF00
03FFFF80
07FFFF80
07F87FC0
0FE03FC0
0FC01FC0
1FC00FE0
1F800FE0
1F800700
1F800000
3F000000
3F000000
3F000000
3F000000
3F000000
3F000000
3F000000
3F000000
3F000000
3F000000
3F000000
3F000600
3F800780
1F8007E0
1F800FE0
1FC00FC0
0FC01FC0
0FE03FC0
07F87F80
07FFFF80
03FFFF00
01FFFE00
00FFFC00
007FF800
000FE000
000F8000
000FE000
001FE000
0000F000
0000F000
0000F000
0001F000
007FE000
007FC000
007F0000
ENDCHAR

STARTCHAR Egrave
ENCODING 200
SWIDTH 547 0
DWIDTH 27 0
BBX 25 46 2 0
BITMAP
01F80000
01F80000
00FC0000
007C0000
003C0000
003E0000
001E0000
00000000
00000000
00000000
7FFFFE00
7FFFFE00
7FFFFE00
7FFFFE00
7FFFFE00
7FFFFE00
7E000000
7E000000
7E000000
7E000000
7E000000
7E000000
7E000000
7E000000
7FFFFC00
7FFFFC00
7FFFFC00
7FFFFC00
7FFFFC00
7FFFFC00
7E000000
7E000000
7E000000
7E000000
7E000000
7E000000
7E000000
7E000000
7E000000
7E000000
7FFFFE00
7FFFFE00
7FFFFE00
7FFFFE00
7FFFFE00
7FFFFE00
ENDCHAR

STARTCHAR Eacute
ENCODING 201
SWIDTH 547 0
DWIDTH 27 0
BBX 25 46 2 0
BITMAP
000FC000
001F8000
001F0000
001F0000
003E0000
003C0000
00780000
00000000
00000000
00000000
7FFFFE00
7FFFFE00
7FFFFE00
7FFFFE00
7FFFFE00
7FFFFE00
7E000000
7E000000
7E000000
7E000000
7E000000
7E000000
7E000000
7E000000
7FFFFC00
7FFFFC00
7FFFFC00
7FFFFC00
7FFFFC00
7FFFFC00
7E000000
7E000000
7E000000
7E000000
7E000000
7E000000
7E000000
7E000000
7E000000
7E000000
7FFFFE00
7FFFFE00
7FFFFE00
7FFFFE00
7FFFFE00
7FFFFE00
ENDCHAR

STARTCHAR Ecircumflex
ENCODING 202
SWIDTH 547 0
DWIDTH 27 0
BBX 25 46 2 0
BITMAP
007E0000
007F0000
00FF0000
00FF8000
01F7C000
03E7C000
03C3E000
00000000
00000000
00000000
7FFFFE00
7FFFFE00
7FFFFE00
7FFFFE00
7FFFFE00
7FFFFE00
7E000000
7E000000
7E000000
7E000000
7E000000
7E000000
7E000000
7E000000
7FFFFC00
7FFFFC00
7FFFFC00
7FFFFC00
7FFFFC00
7FFFFC00
7E000000
7E000000
7E000000
7E000000
7E000000
7E000000
7E000000
7E000000
7E000000
7E000000
7FFFFE00
7FFFFE00
7FFFFE00
7FFFFE00
7FFFFE00
7FFFFE00
ENDCHAR

STARTCHAR Edieresis
ENCODING 203
SWIDTH 547 0
DWIDTH 27 0
BBX 25 46 2 0
BITMAP
07C3E000
07C3E000
07C3E000
07C3E000
07C3E000
07C3E000
00000000
00000000
00000000
00000000
7FFFFE00
7FFFFE00
7FFFFE00
7FFFFE00
7FFFFE00
7FFFFE00
7E000000
7E000000
7E000000
7E000000
7E000000
7E000000
7E000000
7E000000
7FFFFC00
7FFFFC00
7FFFFC00
7FFFFC00
7FFFFC00
7FFFFC00
7E000000
7E000000
7E000000
7E000000
7E000000
7E000000
7E000000
7E000000
7E000000
7E000000
7FFFFE00
7FFFFE00
7FFFFE00
7FFFFE00
7FFFFE00
7FFFFE00
ENDCHAR

STARTCHAR Igrave
ENCODING 204
SWIDTH 228 0
DWIDTH 11 0
BBX 12 46 -1 0
BITMAP
7F00
3F00
1F00
0F80
0F80
0780
03C0
0000
0000
0000
0FC0
0FC0
0FC0
0FC0
0FC0
0FC0
0FC0
0FC0
0FC0
0FC0
0FC0
0FC0
0FC0
0FC0
0FC0
0FC0
0FC0
0FC0
0FC0
0FC0
0FC0
0FC0
0FC0
0FC0
0FC0
0FC0
0FC0
0FC0
0FC0
0FC0
0FC0
0FC0
0FC0
0FC0
0FC0
0FC0
ENDCHAR

STARTCHAR Iacute
ENCODING 205
SWIDTH 228 0
DWIDTH 11 0
BBX 12 46 1 0
BITMAP
0FE0
0FC0
0F80
1F00
1F00
1E00
3C00
0000
0000
0000
3F00
3F00
3F00
3F00
3F00
3F00
3F00
3F00
3F00
3F00
3F00
3F00
3F00
3F00
3F00
3F00
3F00
3F00
3F00
3F00
3F00
3F00
3F00
3F00
3F00
3F00
3F00
3F00
3F00
3F00
3F00
3F00
3F00
3F00
3F00
3F00
ENDCHAR

STARTCHAR Icircumflex
ENCODING 206
SWIDTH 228 0
DWIDTH 11 0
BBX 16 46 -2 0
BITMAP
07E0
07F0
0FF0
1FF8
1E78
3E7C
3C3C
0000
0000
0000
07E0
07E0
07E0
07E0
07E0
07E0
07E0
07E0
07E0
07E0
07E0
07E0
07E0
07E0
07E0
07E0
07E0
07E0
07E0
07E0
07E0
07E0
07E0
07E0
07E0
07E0
07E0
07E0
07E0
07E0
07E0
07E0
07E0
07E0
07E0
07E0
ENDCHAR

STARTCHAR Idieresis
ENCODING 207
SWIDTH 228 0
DWIDTH 11 0
BBX 16 46 -2 0
BITMAP
7C3E
7C3E
7C3E
7C3E
7C3E
7C3E
0000
0000
0000
0000
07E0
07E0
07E0
07E0
07E0
07E0
07E0
07E0
07E0
07E0
07E0
07E0
07E0
07E0
07E0
07E0
07E0
07E0
07E0
07E0
07E0
07E0
07E0
07E0
07E0
07E0
07E0
07E0
07E0
07E0
07E0
07E0
07E0
07E0
07E0
07E0
ENDCHAR

STARTCHAR Gbreve
ENCODING 208
SWIDTH 641 0
DWIDTH 32 0
BBX 30 47 0 -1
BITMAP
00701C00
00303800
00383800
003FF800
001FF000
000FE000
00038000
00000000
00000000
0007F000
003FFE00
007FFF00
01FFFF80
03FFFFC0
03FFFFE0
07FC3FE0
0FF00FF0
0FE007F0
0FC003F0
1FC003F8
1F8001C0
1F800000
3F800000
3F000000
3F000000
3F000000
3F000000
3F00FFF8
3F00FFF8
3F00FFF8
3F00FFF8
3F00FFF8
3F00FFF8
3F8001F8
1F8001F8
1F8001F8
1FC001F8
0FC001F8
0FE003F8
0FF007F8
07FC3FF8
03FFFFF8
01FFFFF0
01FFFFE0
007FFF80
003FFE00
0007F800
ENDCHAR

STARTCHAR Ntilde
ENCODING 209
SWIDTH 592 0
DWIDTH 30 0
BBX 26 45 2 0
BITMAP
00F07000
01FC7000
03FFF000
03FFE000
038FE000
0303C000
00000000
00000000
00000000
7E001F80
7F001F80
7F001F80
7F801F80
7F801F80
7FC01F80
7FC01F80
7FE01F80
7FE01F80
7FF01F80
7FF01F80
7FF81F80
7FF81F80
7FFC1F80
7EFC1F80
7EFE1F80
7E7E1F80
7E7F1F80
7E3F1F80
7E3F9F80
7E1F9F80
7E1FDF80
7E0FFF80
7E0FFF80
7E07FF80
7E07FF80
7E03FF80
7E03FF80
7E01FF80
7E01FF80
7E00FF80
7E00FF80
7E007F80
7E007F80
7E003F80
7E001F80
ENDCHAR

STARTCHAR Ograve
ENCODING 210
SWIDTH 638 0
DWIDTH 32 0
BBX 32 48 0 -1
BITMAP
003F0000
001F8000
000F8000
000F8000
0007C000
0003C000
0001E000
0001E000
00000000
00000000
000FF000
003FFC00
00FFFF00
01FFFF80
03FFFFC0
07FFFFE0
07FC3FE0
0FF00FF0
0FE007F0
1FC003F8
1FC001F8
1F8001F8
1F8001FC
3F8001FC
3F0000FC
3F0000FC
3F0000FC
3F0000FC
3F0000FC
3F0000FC
3F0000FC
3F0000FC
3F0000FC
3F0000FC
3F8001FC
1F8001F8
1F8001F8
1FC003F8
1FC003F8
0FE007F0
0FF00FF0
07FC3FE0
07FFFFE0
03FFFFC0
01FFFF80
00FFFF00
003FFC00
000FF000
ENDCHAR

STARTCHAR Oacute
ENCODING 211
SWIDTH 638 0
DWIDTH 32 0
BBX 32 48 0 -1
BITMAP
0000FC00
0001F800
0001F000
0001F000
0003E000
0003C000
00038000
00078000
00000000
00000000
000FF000
003FFC00
00FFFF00
01FFFF80
03FFFFC0
07FFFFE0
07FC3FE0
0FF00FF0
0FE007F0
1FC003F8
1FC001F8
1F8001F8
1F8001FC
3F8001FC
3F0000FC
3F0000FC
3F0000FC
3F0000FC
3F0000FC
3F0000FC
3F0000FC
3F0000FC
3F0000FC
3F0000FC
3F8001FC
1F8001F8
1F8001F8
1FC003F8
1FC003F8
0FE007F0
0FF00FF0
07FC3FE0
07FFFFE0
03FFFFC0
01FFFF80
00FFFF00
003FFC00
000FF000
ENDCHAR

STARTCHAR Ocircumflex
ENCODING 212
SWIDTH 638 0
DWIDTH 32 0
BBX 32 48 0 -1
BITMAP
0007E000
0007E000
000FF000
000FF000
001FF800
001E7800
003E7C00
003C3E00
00000000
00000000
000FF000
003FFC00
00FFFF00
01FFFF80
03FFFFC0
07FFFFE0
07FC3FE0
0FF00FF0
0FE007F0
1FC003F8
1FC001F8
1F8001F8
1F8001FC
3F8001FC
3F0000FC
3F0000FC
3F0000FC
3F0000FC
3F0000FC
3F0000FC
3F0000FC
3F0000FC
3F0000FC
3F0000FC
3F8001FC
1F8001F8
1F8001F8
1FC003F8
1FC003F8
0FE007F0
0FF00FF0
07FC3FE0
07FFFFE0
03FFFFC0
01FFFF80
00FFFF00
003FFC00
000FF000
ENDCHAR

STARTCHAR Otilde
ENCODING 213
SWIDTH 638 0
DWIDTH 32 0
BBX 32 46 0 -1
BITMAP
001E0E00
003F8E00
003FFC00
007FFC00
0071FC00
00703000
00000000
00000000
000FF000
003FFC00
00FFFF00
01FFFF80
03FFFFC0
07FFFFE0
07FC3FE0
0FF00FF0
0FE007F0
1FC003F8
1FC001F8
1F8001F8
1F8001FC
3F8001FC
3F0000FC
3F0000FC
3F0000FC
3F0000FC
3F0000FC
3F0000FC
3F0000FC
3F0000FC
3F0000FC
3F0000FC
3F8001FC
1F8001F8
1F8001F8
1FC003F8
1FC003F8
0FE007F0
0FF00FF0
07FC3FE0
07FFFFE0
03FFFFC0
01FFFF80
00FFFF00
003FFC00
000FF000
ENDCHAR

STARTCHAR Odieresis
ENCODING 214
SWIDTH 638 0
DWIDTH 32 0
BBX 32 47 0 -1
BITMAP
007C3E00
007C3E00
007C3E00
007C3E00
007C3E00
007C3E00
00000000
00000000
00000000
0007E000
003FFC00
00FFFF00
01FFFF80
03FFFFC0
07FFFFE0
07FC3FE0
0FF00FF0
0FE007F0
1FC003F8
1F8001F8
1F8001F8
1F8001FC
3F0000FC
3F0000FC
3F0000FC
3F0000FC
3F0000FC
3F0000FC
3F0000FC
3F0000FC
3F0000FC
3F0000FC
3F0000FC
3F0000FC
1F8001FC
1F8001F8
1FC001F8
1FC003F8
0FE007F0
0FF00FF0
07FC3FE0
07FFFFE0
03FFFFC0
01FFFF80
00FFFF00
007FFE00
000FF000
ENDCHAR

STARTCHAR multiply
ENCODING 215
SWIDTH 479 0
DWIDTH 24 0
BBX 22 23 1 6
BITMAP
0C00C0
1E01E0
3F01F0
3F03F0
3F87F0
1FCFE0
1FFFE0
0FFFC0
07FF80
03FF00
01FE00
01FE00
03FF00
03FF80
07FF80
0FFFC0
1FCFE0
3FCFF0
3F87F8
3F03F0
1E01E0
0C00E0
0800C0
ENDCHAR

STARTCHAR Oslash
ENCODING 216
SWIDTH 638 0
DWIDTH 32 0
BBX 32 40 0 -2
BITMAP
00000018
000FF018
003FFC3C
00FFFF7C
01FFFFF8
03FFFFF8
07FFFFF0
07FC3FE0
0FF00FF0
0FE007F0
1FC00FF8
1FC00FF8
1F801FF8
1F803FF8
3F803CFC
3F007CFC
3F00F8FC
3F01F0FC
3F01F0FC
3F03E0FC
3F07C0FC
3F07C0FC
3F0F80FC
3F1F00FC
3F1E00FC
3FBE01FC
1FFC01F8
1FF801F8
1FF803F8
1FF003F8
0FE007F0
0FF00FF0
07FC3FE0
0FFFFFE0
1FFFFFC0
1FFFFF80
3EFFFF00
3C3FFC00
1C0FF000
08000000
ENDCHAR

STARTCHAR Ugrave
ENCODING 217
SWIDTH 592 0
DWIDTH 30 0
BBX 26 47 2 -1
BITMAP
01FC0000
00FC0000
007C0000
003E0000
003E0000
001F0000
000F0000
00000000
00000000
00000000
7E001F80
7E001F80
7E001F80
7E001F80
7E001F80
7E001F80
7E001F80
7E001F80
7E001F80
7E001F80
7E001F80
7E001F80
7E001F80
7E001F80
7E001F80
7E001F80
7E001F80
7E001F80
7E001F80
7E001F80
7E001F80
7E001F80
7E001F80
7E001F80
7E001F80
7E001F80
7F001F80
7F003F80
3F003F80
3F807F00
3FE0FF00
1FFFFF00
1FFFFE00
0FFFFC00
07FFF800
03FFF000
007FC000
ENDCHAR

STARTCHAR Uacute
ENCODING 218
SWIDTH 592 0
DWIDTH 30 0
BBX 26 47 2 -1
BITMAP
0007E000
000FC000
000F8000
001F0000
001F0000
001E0000
003C0000
00000000
00000000
00000000
7E001F80
7E001F80
7E001F80
7E001F80
7E001F80
7E001F80
7E001F80
7E001F80
7E001F80
7E001F80
7E001F80
7E001F80
7E001F80
7E001F80
7E001F80
7E001F80
7E001F80
7E001F80
7E001F80
7E001F80
7E001F80
7E001F80
7E001F80
7E001F80
7E001F80
7E001F80
7F001F80
7F003F80
3F003F80
3F807F00
3FE0FF00
1FFFFF00
1FFFFE00
0FFFFC00
07FFF800
03FFF000
007FC000
ENDCHAR

STARTCHAR Ucircumflex
ENCODING 219
SWIDTH 592 0
DWIDTH 30 0
BBX 26 47 2 -1
BITMAP
003F0000
007F8000
007F8000
00FFC000
00F3C000
01F3E000
01E1F000
00000000
00000000
00000000
7E001F80
7E001F80
7E001F80
7E001F80
7E001F80
7E001F80
7E001F80
7E001F80
7E001F80
7E001F80
7E001F80
7E001F80
7E001F80
7E001F80
7E001F80
7E001F80
7E001F80
7E001F80
7E001F80
7E001F80
7E001F80
7E001F80
7E001F80
7E001F80
7E001F80
7E001F80
7F001F80
7F003F80
3F003F80
3F807F00
3FE0FF00
1FFFFF00
1FFFFE00
0FFFFC00
07FFF800
03FFF000
007FC000
ENDCHAR

STARTCHAR Udieresis
ENCODING 220
SWIDTH 592 0
DWIDTH 30 0
BBX 26 47 2 -1
BITMAP
03E1F000
03E1F000
03E1F000
03E1F000
03E1F000
03E1F000
00000000
00000000
00000000
00000000
7E001F80
7E001F80
7E001F80
7E001F80
7E001F80
7E001F80
7E001F80
7E001F80
7E001F80
7E001F80
7E001F80
7E001F80
7E001F80
7E001F80
7E001F80
7E001F80
7E001F80
7E001F80
7E001F80
7E001F80
7E001F80
7E001F80
7E001F80
7E001F80
7E001F80
7E001F80
7F001F80
7F003F80
3F003F80
3F807F00
3FE0FF00
1FFFFF00
1FFFFE00
0FFFFC00
07FFF800
03FFF000
007FC000
ENDCHAR

STARTCHAR Idotaccent
ENCODING 221
SWIDTH 228 0
DWIDTH 11 0
BBX 8 46 2 0
BITMAP
7E
7E
7E
7E
7E
7E
7E
00
00
00
7E
7E
7E
7E
7E
7E
7E
7E
7E
7E
7E
7E
7E
7E
7E
7E
7E
7E
7E
7E
7E
7E
7E
7E
7E
7E
7E
7E
7E
7E
7E
7E
7E
7E
7E
7E
ENDCHAR

STARTCHAR Scedilla
ENCODING 222
SWIDTH 547 0
DWIDTH 27 0
BBX 26 48 0 -11
BITMAP
007F8000
01FFE000
07FFF800
07FFFC00
0FFFFC00
1FFFFE00
1FE3FE00
1F80FF00
3F007F00
3F003F00
3F003F00
3F003F00
3F800000
3FC00000
1FF80000
1FFF0000
0FFFE000
0FFFF800
07FFFC00
01FFFE00
007FFE00
001FFF00
0003FF00
00007F80
00003F80
3E001F80
7E001F80
7F001F80
3F001F80
3F003F80
3F807F80
1FE0FF00
1FFFFF00
0FFFFE00
0FFFFC00
07FFF800
01FFF000
007FC000
003F0000
007F8000
007FC000
0003C000
0003C000
0003C000
0007C000
01FF8000
01FF0000
01FC0000
ENDCHAR

STARTCHAR germandbls
ENCODING 223
SWIDTH 501 0
DWIDTH 25 0
BBX 23 38 2 -1
BITMAP
03FC00
07FE00
0FFF00
1FFF80
3FFF80
3F1FC0
3F0FC0
3E0FC0
7E0FC0
7E0FC0
7E1F80
7E1F80
7E1F80
7E3F00
7E3F00
7E3E00
7E7E00
7E7F00
7E7F00
7E3F80
7E3FC0
7E1FE0
7E1FE0
7E0FF0
7E07F8
7E03F8
7E01FC
7E01FC
7E00FC
7E00FC
7E10FC
7E39FC
7E7FF8
7EFFF8
7E7FF0
7E3FF0
7E1FE0
000700
ENDCHAR

STARTCHAR agrave
ENCODING 224
SWIDTH 456 0
DWIDTH 23 0
BBX 23 38 0 -1
BITMAP
03F000
03F000
01F000
00F800
007800
007C00
003C00
000000
000000
000000
01FE00
07FF80
0FFFC0
1FFFE0
1FFFE0
3F87F0
3F03F0
3E03F0
0003F0
0003F0
000FF0
00FFF0
03FFF0
0FFFF0
1FFFF0
3FE3F0
3F03F0
3E03F0
7E03F0
7E03F0
7E07F0
7E07F0
3F0FF0
3FFFF0
3FFFF0
1FFDF8
0FF9F8
03E000
ENDCHAR

STARTCHAR aacute
ENCODING 225
SWIDTH 456 0
DWIDTH 23 0
BBX 23 38 0 -1
BITMAP
001F80
003F00
003E00
007C00
007C00
007800
00F000
000000
000000
000000
01FE00
07FF80
0FFFC0
1FFFE0
1FFFE0
3F87F0
3F03F0
3E03F0
0003F0
0003F0
000FF0
00FFF0
03FFF0
0FFFF0
1FFFF0
3FE3F0
3F03F0
3E03F0
7E03F0
7E03F0
7E07F0
7E07F0
3F0FF0
3FFFF0
3FFFF0
1FFDF8
0FF9F8
03E000
ENDCHAR

STARTCHAR acircumflex
ENCODING 226
SWIDTH 456 0
DWIDTH 23 0
BBX 23 38 0 -1
BITMAP
00FC00
00FE00
01FE00
01FF00
03CF00
07CF80
078780
000000
000000
000000
01FE00
07FF80
0FFFC0
1FFFE0
1FFFE0
3F87F0
3F03F0
3E03F0
0003F0
0003F0
000FF0
00FFF0
03FFF0
0FFFF0
1FFFF0
3FE3F0
3F03F0
3E03F0
7E03F0
7E03F0
7E07F0
7E07F0
3F0FF0
3FFFF0
3FFFF0
1FFDF8
0FF9F8
03E000
ENDCHAR

STARTCHAR atilde
ENCODING 227
SWIDTH 456 0
DWIDTH 23 0
BBX 23 36 0 -1
BITMAP
03C1C0
07F1C0
07FFC0
0FFF80
0E3F80
0E0600
000000
000000
01FE00
07FF80
0FFFC0
1FFFE0
1FFFE0
3F87F0
3F03F0
3E03F0
0003F0
0003F0
000FF0
00FFF0
03FFF0
0FFFF0
1FFFF0
3FE3F0
3F03F0
3E03F0
7E03F0
7E03F0
7E07F0
7E07F0
3F0FF0
3FFFF0
3FFFF0
1FFDF8
0FF9F8
03E000
ENDCHAR

STARTCHAR adieresis
ENCODING 228
SWIDTH 456 0
DWIDTH 23 0
BBX 23 38 0 -1
BITMAP
0F87C0
0F87C0
0F87C0
0F87C0
0F87C0
0F87C0
000000
000000
000000
000000
01FE00
07FF80
0FFFC0
1FFFE0
1FFFE0
3F87F0
3F03F0
3E03F0
0203F0
0003F0
000FF0
00FFF0
03FFF0
0FFFF0
1FFFF0
3FE3F0
3F03F0
3E03F0
7E03F0
7E03F0
7E07F0
7E07F0
3F0FF0
3FFFF0
3FFFF0
1FFDF8
0FF9F8
03E000
ENDCHAR

STARTCHAR aring
ENCODING 229
SWIDTH 456 0
DWIDTH 23 0
BBX 23 39 0 -1
BITMAP
003800
00FC00
00FE00
01CE00
018600
018600
01CE00
00FC00
00FC00
003000
000000
01FE00
07FF80
0FFFC0
1FFFE0
1FFFE0
3F87F0
3F03F0
3E03F0
0003F0
0003F0
000FF0
00FFF0
03FFF0
0FFFF0
1FFFF0
3FE3F0
3F03F0
3E03F0
7E03F0
7E03F0
7E07F0
7E07F0
3F0FF0
3FFFF0
3FFFF0
1FFDF8
0FF9F8
03C000
ENDCHAR

STARTCHAR ae
ENCODING 230
SWIDTH 729 0
DWIDTH 36 0
BBX 35 28 1 -1
BITMAP
01FE07E000
07FF9FF800
0FFFFFFC00
1FFFFFFE00
1FFFFFFF00
3FCFFE7F00
3F03F81F00
3E03F81F80
0203F00F80
0003F00F80
0007F00F80
003FF00FC0
03FFFFFFC0
0FFFFFFFC0
1FFFFFFFC0
3FF3FFFFC0
3F83F00000
3F03F00000
7E03F00000
7E03F00C00
7E03F80F80
7E07FC1F80
7F0FFE3F80
3FFFFFFF00
3FFFFFFF00
1FFF3FFE00
0FFC1FFC00
03F007F000
ENDCHAR

STARTCHAR ccedilla
ENCODING 231
SWIDTH 456 0
DWIDTH 23 0
BBX 23 37 1 -10
BITMAP
00FE00
03FF80
07FFC0
0FFFE0
1FFFF0
1FC7F0
3F83F8
3F01F8
3F01F0
3E0000
7E0000
7E0000
7E0000
7E0000
7E0000
7E0000
7E0000
7E00C0
3F00F8
3F01F8
3F81F8
1FC3F0
1FFFF0
0FFFE0
0FFFE0
07FFC0
01FF00
007C00
00FC00
00FF00
000F00
000700
000700
000F00
03FE00
03FC00
03F000
ENDCHAR

STARTCHAR egrave
ENCODING 232
SWIDTH 456 0
DWIDTH 23 0
BBX 22 38 0 -1
BITMAP
07E000
03F000
01F000
00F800
00F800
007800
003C00
000000
000000
000000
00FC00
03FF00
07FF80
0FFFC0
1FFFE0
1FCFE0
3F83E0
3F03F0
3E01F0
3E01F0
7E01F0
7E01F8
7FFFF8
7FFFF8
7FFFF8
7FFFF8
7E0000
7E0000
3E0000
3E0180
3F03F0
3F83F0
1FC7F0
1FFFE0
0FFFE0
07FFC0
03FF80
00FE00
ENDCHAR

STARTCHAR eacute
ENCODING 233
SWIDTH 456 0
DWIDTH 23 0
BBX 22 38 0 -1
BITMAP
003F00
003F00
003E00
007C00
007800
007800
00F000
000000
000000
000000
00FC00
03FF00
07FF80
0FFFC0
1FFFE0
1FCFE0
3F83E0
3F03F0
3E01F0
3E01F0
7E01F0
7E01F8
7FFFF8
7FFFF8
7FFFF8
7FFFF8
7E0000
7E0000
3E0000
3E0180
3F03F0
3F83F0
1FC7F0
1FFFE0
0FFFE0
07FFC0
03FF80
00FE00
ENDCHAR

STARTCHAR ecircumflex
ENCODING 234
SWIDTH 456 0
DWIDTH 23 0
BBX 22 38 0 -1
BITMAP
00FC00
00FC00
01FE00
03FF00
03DF00
07CF80
078780
000000
000000
000000
00FC00
03FF00
07FF80
0FFFC0
1FFFE0
1FCFE0
3F83E0
3F03F0
3E01F0
3E01F0
7E01F0
7E01F8
7FFFF8
7FFFF8
7FFFF8
7FFFF8
7E0000
7E0000
3E0000
3E0180
3F03F0
3F83F0
1FC7F0
1FFFE0
0FFFE0
07FFC0
03FF80
00FE00
ENDCHAR

STARTCHAR edieresis
ENCODING 235
SWIDTH 456 0
DWIDTH 23 0
BBX 23 38 0 -1
BITMAP
0F87C0
0F87C0
0F87C0
0F87C0
0F87C0
0F87C0
000000
000000
000000
000000
00FC00
03FF00
07FF80
0FFFC0
1FFFE0
1FCFE0
3F83F0
3F03F0
3E01F0
3E01F8
7E01F8
7E01F8
7FFFF8
7FFFF8
7FFFF8
7FFFF8
7E0000
7E0000
3E0000
3E0180
3F03F8
3F83F0
1FC7F0
1FFFE0
0FFFE0
07FFC0
03FF80
00FE00
ENDCHAR

STARTCHAR igrave
ENCODING 236
SWIDTH 228 0
DWIDTH 11 0
BBX 12 37 -1 0
BITMAP
7E00
3F00
1F00
1F00
0F80
0780
03C0
03C0
0000
0000
0000
0FC0
0FC0
0FC0
0FC0
0FC0
0FC0
0FC0
0FC0
0FC0
0FC0
0FC0
0FC0
0FC0
0FC0
0FC0
0FC0
0FC0
0FC0
0FC0
0FC0
0FC0
0FC0
0FC0
0FC0
0FC0
0FC0
ENDCHAR

STARTCHAR iacute
ENCODING 237
SWIDTH 228 0
DWIDTH 11 0
BBX 12 37 1 0
BITMAP
07E0
0FC0
0F80
0F80
1F00
1E00
3C00
3C00
0000
0000
0000
3F00
3F00
3F00
3F00
3F00
3F00
3F00
3F00
3F00
3F00
3F00
3F00
3F00
3F00
3F00
3F00
3F00
3F00
3F00
3F00
3F00
3F00
3F00
3F00
3F00
3F00
ENDCHAR

STARTCHAR icircumflex
ENCODING 238
SWIDTH 228 0
DWIDTH 11 0
BBX 16 37 -2 0
BITMAP
07E0
07E0
0FF0
0FF0
1FF8
1E7C
3C3C
7C3E
0000
0000
0000
07E0
07E0
07E0
07E0
07E0
07E0
07E0
07E0
07E0
07E0
07E0
07E0
07E0
07E0
07E0
07E0
07E0
07E0
07E0
07E0
07E0
07E0
07E0
07E0
07E0
07E0
ENDCHAR

STARTCHAR idieresis
ENCODING 239
SWIDTH 228 0
DWIDTH 11 0
BBX 16 37 -2 0
BITMAP
7C3E
7C3E
7C3E
7C3E
7C3E
7C3E
0000
0000
0000
0000
0000
07E0
07E0
07E0
07E0
07E0
07E0
07E0
07E0
07E0
07E0
07E0
07E0
07E0
07E0
07E0
07E0
07E0
07E0
07E0
07E0
07E0
07E0
07E0
07E0
07E0
07E0
ENDCHAR

STARTCHAR gbreve
ENCODING 240
SWIDTH 501 0
DWIDTH 25 0
BBX 23 46 1 -10
BITMAP
0701C0
030380
038380
03FF80
01FF00
00FE00
003800
000000
000000
00F000
03FCFC
07FEFC
0FFFFC
1FFFFC
1FC7FC
3F83FC
3F01FC
3F00FC
3E00FC
7E00FC
7E00FC
7E00FC
7E00FC
7E00FC
7E00FC
7E00FC
3F00FC
3F01FC
3F01FC
3F87FC
1FFFFC
1FFFFC
0FFFFC
07FEFC
03F8FC
0000FC
0000FC
3800FC
3F00F8
3F81F8
3FC7F8
1FFFF8
1FFFF0
0FFFE0
07FFC0
01FF00
ENDCHAR

STARTCHAR ntilde
ENCODING 241
SWIDTH 501 0
DWIDTH 25 0
BBX 22 35 1 0
BITMAP
03C1C0
07F1C0
0FFFC0
0FFF80
0E3F80
0C0F00
000000
000000
001F80
7E7FC0
7EFFE0
7FFFF0
7FFFF0
7FC7F8
7F83F8
7F01F8
7E01F8
7E01F8
7E01F8
7E01F8
7E01F8
7E01F8
7E01F8
7E01F8
7E01F8
7E01F8
7E01F8
7E01F8
7E01F8
7E01F8
7E01F8
7E01F8
7E01F8
7E01F8
7E01F8
ENDCHAR

STARTCHAR ograve
ENCODING 242
SWIDTH 501 0
DWIDTH 25 0
BBX 24 38 1 -1
BITMAP
03F000
01F800
00F800
00FC00
007C00
003C00
001E00
001E00
000000
000000
007E00
01FF80
03FFC0
07FFE0
0FFFF0
1FFFF8
1FC3F8
3F81FC
3F00FC
3F00FC
7E007E
7E007E
7E007E
7E007E
7E007E
7E007E
7E007E
3E007E
3F00FC
3F00FC
3F81FC
1FC3F8
1FFFF8
0FFFF0
07FFE0
03FFC0
01FF80
003E00
ENDCHAR

STARTCHAR oacute
ENCODING 243
SWIDTH 501 0
DWIDTH 25 0
BBX 24 38 1 -1
BITMAP
000FC0
001F80
001F00
001F00
003E00
003C00
007800
007800
000000
000000
007E00
01FF80
03FFC0
07FFE0
0FFFF0
1FFFF8
1FC3F8
3F81FC
3F00FC
3F00FC
7E007E
7E007E
7E007E
7E007E
7E007E
7E007E
7E007E
3E007E
3F00FC
3F00FC
3F81FC
1FC3F8
1FFFF8
0FFFF0
07FFE0
03FFC0
01FF80
003E00
ENDCHAR

STARTCHAR ocircumflex
ENCODING 244
SWIDTH 501 0
DWIDTH 25 0
BBX 24 38 1 -1
BITMAP
007E00
007E00
00FF00
00FF00
01FF80
01E7C0
03C3C0
000000
000000
000000
007E00
01FF80
03FFC0
07FFE0
0FFFF0
1FFFF8
1FC3F8
3F81FC
3F00FC
3F00FC
7E007E
7E007E
7E007E
7E007E
7E007E
7E007E
7E007E
3E007E
3F00FC
3F00FC
3F81FC
1FC3F8
1FFFF8
0FFFF0
07FFE0
03FFC0
01FF80
003E00
ENDCHAR

STARTCHAR otilde
ENCODING 245
SWIDTH 501 0
DWIDTH 25 0
BBX 24 36 1 -1
BITMAP
01E0E0
03F8E0
07FFC0
07FFC0
071FC0
070300
000000
000000
007E00
01FF80
03FFC0
07FFE0
0FFFF0
1FFFF8
1FC3F8
3F81FC
3F00FC
3F00FC
7E007E
7E007E
7E007E
7E007E
7E007E
7E007E
7E007E
3E007E
3F00FC
3F00FC
3F81FC
1FC3F8
1FFFF8
0FFFF0
07FFE0
03FFC0
01FF80
003E00
ENDCHAR

STARTCHAR odieresis
ENCODING 246
SWIDTH 501 0
DWIDTH 25 0
BBX 24 38 1 -1
BITMAP
07C3E0
07C3E0
07C3E0
07C3E0
07C3E0
07C3E0
000000
000000
000000
000000
007E00
01FF80
03FFE0
07FFE0
0FFFF0
1FFFF8
1FC3F8
3F81FC
3F00FC
3F00FC
7E007E
7E007E
7E007E
7E007E
7E007E
7E007E
7E007E
3E007E
3F00FC
3F00FC
3F81FC
1FC3F8
1FFFF8
0FFFF0
07FFE0
03FFC0
01FF80
003E00
ENDCHAR

STARTCHAR divide
ENCODING 247
SWIDTH 479 0
DWIDTH 24 0
BBX 24 26 0 5
BITMAP
007E00
007E00
007E00
007E00
007E00
007E00
007E00
000000
000000
000000
3FFFFC
3FFFFC
3FFFFC
3FFFFC
3FFFFC
3FFFFC
000000
000000
000000
007E00
007E00
007E00
007E00
007E00
007E00
007E00
ENDCHAR

STARTCHAR oslash
ENCODING 248
SWIDTH 501 0
DWIDTH 25 0
BBX 24 30 1 -2
BITMAP
000008
007F1C
01FFBC
07FFFC
07FFF8
0FFFF0
1FE7F8
1F81F8
3F03FC
3F03FC
3E07FC
3E0F7E
7E0F7E
7E1E7E
7E1C7E
7E3C7E
7E787E
7E707E
3EF07C
3FE07C
3FC0FC
3FC0FC
1F81F8
1FE7F8
0FFFF0
1FFFE0
1FFFE0
3DFF80
38FE00
100000
ENDCHAR

STARTCHAR ugrave
ENCODING 249
SWIDTH 501 0
DWIDTH 25 0
BBX 22 38 1 -1
BITMAP
07E000
03F000
03F000
01F800
00F800
007800
003C00
003C00
000000
000000
000000
7E01F8
7E01F8
7E01F8
7E01F8
7E01F8
7E01F8
7E01F8
7E01F8
7E01F8
7E01F8
7E01F8
7E01F8
7E01F8
7E01F8
7E01F8
7E01F8
7E01F8
7E01F8
7E01F8
7E03F8
7F07F8
3F8FF8
3FFFF8
3FFEF8
1FFCF8
0FF8F8
07E000
ENDCHAR

STARTCHAR uacute
ENCODING 250
SWIDTH 501 0
DWIDTH 25 0
BBX 22 38 1 -1
BITMAP
001F80
003F00
003F00
003E00
007C00
007800
00F800
00F000
000000
000000
000000
7E01F8
7E01F8
7E01F8
7E01F8
7E01F8
7E01F8
7E01F8
7E01F8
7E01F8
7E01F8
7E01F8
7E01F8
7E01F8
7E01F8
7E01F8
7E01F8
7E01F8
7E01F8
7E01F8
7E03F8
7F07F8
3F8FF8
3FFFF8
3FFEF8
1FFCF8
0FF8F8
07E000
ENDCHAR

STARTCHAR ucircumflex
ENCODING 251
SWIDTH 501 0
DWIDTH 25 0
BBX 22 38 1 -1
BITMAP
00FC00
00FC00
01FE00
01FF00
03FF00
07CF80
078780
0F87C0
000000
000000
000000
7E01F8
7E01F8
7E01F8
7E01F8
7E01F8
7E01F8
7E01F8
7E01F8
7E01F8
7E01F8
7E01F8
7E01F8
7E01F8
7E01F8
7E01F8
7E01F8
7E01F8
7E01F8
7E01F8
7E03F8
7F07F8
3F8FF8
3FFFF8
3FFEF8
1FFCF8
0FF8F8
07E000
ENDCHAR

STARTCHAR udieresis
ENCODING 252
SWIDTH 501 0
DWIDTH 25 0
BBX 22 38 1 -1
BITMAP
0F87C0
0F87C0
0F87C0
0F87C0
0F87C0
0F87C0
000000
000000
000000
000000
000000
7E01F8
7E01F8
7E01F8
7E01F8
7E01F8
7E01F8
7E01F8
7E01F8
7E01F8
7E01F8
7E01F8
7E01F8
7E01F8
7E01F8
7E01F8
7E01F8
7E01F8
7E01F8
7E01F8
7E03F8
7F07F8
3F8FF8
3FFFF8
3FFEF8
1FFCF8
0FF8F8
07E000
ENDCHAR

STARTCHAR dotlessi
ENCODING 253
SWIDTH 228 0
DWIDTH 11 0
BBX 8 26 2 0
BITMAP
7E
7E
7E
7E
7E
7E
7E
7E
7E
7E
7E
7E
7E
7E
7E
7E
7E
7E
7E
7E
7E
7E
7E
7E
7E
7E
ENDCHAR

STARTCHAR scedilla
ENCODING 254
SWIDTH 456 0
DWIDTH 23 0
BBX 22 38 0 -11
BITMAP
01FC00
07FF80
0FFFC0
1FFFE0
1FFFE0
3F8FF0
3E07F0
3E03F0
3E0380
3F0000
3FE000
3FFC00
1FFF00
1FFFC0
0FFFE0
03FFF0
00FFF0
001FF8
0003F8
0E01F8
7E01F8
3F01F8
3F83F0
3FFFF0
1FFFE0
0FFFC0
07FF80
00FE00
00FC00
00FE00
01FF00
000F00
000F00
000F00
001F00
07FE00
07FC00
07F000
ENDCHAR

STARTCHAR ydieresis
ENCODING 255
SWIDTH 456 0
DWIDTH 23 0
BBX 26 47 -2 -10
BITMAP
03E1F000
03E1F000
03E1F000
03E1F000
03E1F000
03E1F000
00000000
00000000
00000000
00000000
00000000
3F003F00
3F003F00
1F803E00
1F807E00
1F807E00
0F807C00
0FC07C00
0FC0FC00
07C0FC00
07E0F800
07E1F800
03E1F800
03F1F000
03F1F000
03F3F000
01F3E000
01FBE000
01FFE000
00FFC000
00FFC000
00FFC000
007FC000
007F8000
007F8000
003F8000
003F0000
003F0000
003F0000
007E0000
00FE0000
01FE0000
1FFC0000
1FFC0000
0FF80000
0FF00000
0FE00000
ENDCHAR
ENDFONT
